<?xml version="1.0" standalone="no"?>
<!DOCTYPE svg PUBLIC "-//W3C//DTD SVG 20010904//EN"
 "http://www.w3.org/TR/2001/REC-SVG-20010904/DTD/svg10.dtd">
<svg version="1.0" xmlns="http://www.w3.org/2000/svg"
 width="1600.000000pt" height="1200.000000pt" viewBox="0 0 1600.000000 1200.000000"
 preserveAspectRatio="xMidYMid meet">
<metadata>
Created by potrace 1.15, written by Peter Selinger 2001-2017
</metadata>
<g transform="translate(0.000000,1200.000000) scale(0.100000,-0.100000)"
fill="#000000" stroke="none">
<path d="M0 10040 l0 -1959 43 -49 c23 -27 67 -77 97 -113 30 -35 64 -73 76
-85 11 -12 31 -34 43 -50 12 -16 37 -45 54 -64 18 -19 45 -53 62 -75 28 -39
68 -84 130 -149 17 -18 41 -47 55 -65 14 -18 50 -60 80 -93 30 -33 73 -80 95
-106 22 -25 61 -68 86 -96 25 -28 55 -62 67 -75 12 -14 22 -28 22 -32 0 -4 7
-9 15 -13 24 -9 17 6 -20 46 -19 20 -35 41 -35 45 0 5 -9 19 -20 31 -12 12
-17 22 -13 22 39 0 204 -176 253 -270 12 -22 9 -21 -26 9 -21 19 -53 49 -71
68 -17 18 -34 33 -38 33 -16 0 46 -77 160 -197 22 -23 56 -63 75 -89 19 -25
50 -61 67 -79 18 -17 33 -37 33 -44 0 -6 6 -11 13 -11 10 0 119 -127 152 -177
6 -9 20 -26 33 -39 12 -13 22 -28 22 -34 0 -5 5 -10 10 -10 14 0 41 -27 65
-65 23 -37 27 -42 100 -120 66 -70 125 -147 125 -162 0 -28 -232 -205 -257
-196 -24 9 -44 29 -36 37 3 3 -3 9 -13 13 -27 10 -74 54 -74 70 0 7 -4 13 -10
13 -5 0 -10 7 -10 15 0 8 -6 15 -14 15 -8 0 -17 11 -20 25 -4 14 -11 23 -16
20 -6 -3 -10 -1 -10 6 0 7 -3 10 -6 6 -6 -6 -70 56 -119 117 -49 60 -118 138
-151 171 -17 16 -52 55 -78 85 -67 78 -126 140 -134 140 -8 0 -82 75 -82 83 0
3 -21 27 -46 53 -26 26 -59 67 -74 91 -37 58 -289 353 -301 353 -6 0 -8 4 -4
9 3 6 -20 36 -52 69 -32 32 -94 98 -138 147 -44 49 -94 104 -112 122 -17 18
-36 40 -42 50 -7 13 -10 -101 -11 -384 0 -222 3 -403 8 -403 4 0 18 9 32 20
24 18 50 26 50 15 0 -12 -49 -81 -69 -97 -20 -17 -21 -27 -21 -182 l0 -164
128 125 c230 227 337 321 364 323 11 0 117 -90 181 -155 75 -75 88 -91 80 -99
-4 -3 -2 -6 4 -6 17 0 3 -41 -16 -48 -20 -8 -181 -143 -181 -151 0 -4 19 -27
43 -52 49 -53 76 -85 97 -115 8 -12 36 -37 61 -57 83 -63 169 -150 176 -176 3
-14 17 -39 32 -56 l26 -30 -26 23 c-35 30 -55 28 -95 -12 l-35 -35 53 -88 c28
-48 74 -122 101 -163 l49 -75 -29 -24 c-35 -28 -273 -161 -289 -161 -6 0 -26
24 -44 53 -18 28 -48 75 -65 102 -110 174 -150 232 -169 247 -27 22 -33 22
-41 -1 -6 -19 -20 -22 -42 -8 -8 5 -23 1 -35 -7 -12 -9 -17 -16 -10 -16 7 0
10 -5 7 -11 -10 -15 -13 -59 -5 -59 4 0 7 -7 7 -15 0 -18 -13 -20 -20 -2 -18
43 -1 -84 38 -279 24 -125 42 -231 39 -236 -7 -11 -138 -107 -186 -137 -21
-12 -42 -20 -47 -17 -4 3 -11 25 -15 48 -4 24 -18 93 -32 153 -13 61 -29 135
-36 165 -6 30 -16 80 -23 110 -7 30 -19 89 -27 130 -12 71 -13 59 -16 -240 -2
-211 1 -333 8 -369 9 -38 9 -56 1 -64 -8 -8 -11 -685 -11 -2409 l0 -2398 2151
0 c1520 0 2148 3 2144 11 -4 6 -9 8 -12 5 -3 -3 -15 1 -25 9 -11 7 -27 11 -34
8 -12 -5 -19 8 -15 30 0 4 -4 7 -10 7 -6 0 -9 9 -6 20 3 11 1 18 -4 14 -5 -3
-9 0 -9 6 0 6 -4 8 -10 5 -5 -3 -8 0 -5 7 2 7 -11 24 -30 38 -18 14 -46 45
-62 69 -15 25 -33 49 -38 55 -6 6 -21 28 -34 49 -12 20 -26 37 -31 37 -4 0
-10 10 -14 23 -3 12 -17 34 -31 49 -14 15 -25 30 -25 33 0 3 -13 19 -29 36
-16 16 -36 45 -44 62 -9 18 -24 41 -34 52 -41 45 -103 135 -103 150 0 8 -4 15
-9 15 -4 0 -28 28 -52 63 -46 66 -58 80 -102 130 -15 18 -35 45 -44 62 -8 16
-22 35 -29 43 -37 37 -16 61 174 206 15 11 37 -11 72 -74 11 -19 38 -64 60
-99 22 -34 40 -66 40 -69 0 -3 8 -15 19 -26 10 -12 40 -59 66 -106 27 -47 59
-102 72 -122 13 -21 22 -39 21 -40 -1 -2 11 -22 25 -45 15 -24 27 -46 27 -50
0 -3 6 -14 13 -22 8 -9 20 -32 27 -51 7 -19 22 -43 32 -53 16 -16 20 -24 17
-43 0 -4 4 -10 9 -13 5 -3 19 -26 32 -51 12 -25 30 -54 40 -65 9 -11 26 -36
36 -55 10 -19 23 -38 28 -41 4 -4 9 -20 11 -36 1 -15 10 -43 19 -60 9 -18 16
-39 16 -48 0 -10 5 -13 11 -9 8 5 10 -1 7 -20 -3 -15 -1 -26 6 -26 7 0 6 -3
-2 -8 -17 -11 -5 -42 17 -42 14 0 14 -2 1 -10 -10 -6 513 -10 1485 -10 l1501
0 1 22 c1 12 9 26 18 30 8 5 15 16 15 24 0 19 24 13 28 -7 1 -9 -8 -27 -22
-42 l-25 -27 3020 0 3020 0 32 23 c18 12 34 25 37 28 3 4 46 36 95 73 50 36
95 69 100 74 6 4 73 57 150 117 77 59 174 136 215 170 41 34 119 93 172 133
94 69 307 245 395 327 40 37 50 58 44 102 0 7 -7 10 -15 7 -8 -3 -19 3 -26 15
-6 12 -7 21 -3 21 4 0 0 6 -9 12 -23 20 -57 153 -65 256 -6 85 -8 93 -29 98
-12 3 -157 -1 -321 -10 -164 -8 -361 -18 -438 -21 -77 -3 -221 -10 -320 -15
-99 -5 -247 -12 -330 -15 -82 -3 -193 -8 -245 -10 -116 -7 -317 -13 -640 -20
-135 -3 -281 -8 -325 -11 -90 -7 -89 -13 -11 76 132 149 216 235 251 255 34
20 59 25 165 30 171 8 412 25 420 30 3 2 75 6 160 9 85 4 202 9 260 11 58 2
173 7 255 10 83 3 179 7 215 10 36 3 137 7 225 10 88 3 185 7 215 10 179 16
300 16 330 0 27 -14 30 -14 30 0 0 17 -3 16 65 20 65 4 207 42 217 58 4 6 6
17 3 24 -2 6 1 14 8 17 9 3 8 5 -1 5 -8 1 -10 6 -6 14 6 9 4 9 -7 -1 -17 -16
-32 -16 -23 1 6 9 4 9 -7 1 -8 -6 -21 -12 -29 -12 -8 0 -26 -3 -39 -6 -13 -3
-86 -6 -163 -7 -108 -1 -143 2 -149 13 -5 7 -4 14 1 16 6 2 10 11 10 21 0 15
16 18 155 20 105 2 155 -1 155 -8 0 -6 3 -10 8 -10 4 1 9 0 12 -1 21 -8 71 -3
75 8 3 7 9 10 15 7 5 -3 10 0 10 8 0 14 -45 36 -320 162 -69 32 -186 85 -260
119 -74 35 -149 68 -166 75 -17 7 -55 37 -84 67 -35 36 -56 51 -60 43 -5 -7
-17 -8 -31 -4 -24 8 -550 262 -602 291 -19 11 -41 14 -65 10 -23 -3 -32 -2
-23 3 7 5 11 13 8 18 -3 5 12 25 34 43 23 18 45 44 50 57 5 12 15 23 22 23 8
0 19 12 26 27 10 21 14 23 24 13 9 -10 9 -14 0 -17 -7 -3 -13 -13 -13 -24 0
-10 -4 -19 -10 -19 -5 0 -10 -9 -10 -19 0 -20 35 -36 95 -44 17 -3 29 -9 28
-14 -1 -5 3 -10 10 -11 7 0 29 -5 50 -10 20 -6 37 -6 37 -1 0 4 19 -1 43 -11
23 -11 49 -20 57 -20 8 -1 44 -18 80 -39 46 -27 64 -43 62 -55 -4 -23 16 -46
34 -39 11 4 13 14 8 39 -6 33 -6 34 19 25 14 -5 28 -7 31 -4 3 3 13 0 23 -8
11 -9 14 -10 9 -2 -4 7 -2 13 3 13 6 0 11 -5 11 -11 0 -5 4 -8 9 -5 5 3 33 -3
63 -13 30 -10 74 -18 97 -17 23 1 44 -1 47 -6 3 -4 17 -8 31 -8 34 0 183 -51
183 -62 0 -5 4 -6 10 -3 5 3 10 3 10 -2 0 -4 19 -17 43 -28 23 -11 44 -23 47
-26 5 -7 118 -59 123 -57 1 1 28 -13 60 -31 31 -17 57 -29 57 -26 0 2 40 -16
89 -41 49 -24 98 -46 109 -49 11 -2 37 -12 59 -23 22 -12 71 -28 109 -38 38
-9 87 -23 109 -31 58 -22 83 -25 91 -12 4 8 3 9 -4 5 -7 -4 -12 -3 -12 2 0 5
-21 24 -47 42 -27 19 -50 37 -53 41 -3 4 -176 91 -385 194 -209 102 -483 238
-610 302 -126 64 -240 122 -252 127 -13 6 -23 15 -23 19 0 5 -4 6 -9 3 -5 -3
-15 1 -22 10 -11 13 -6 13 32 -2 24 -9 49 -20 54 -24 6 -4 24 -11 42 -14 17
-4 37 -13 43 -21 11 -13 66 -31 83 -27 5 2 5 -3 1 -9 -5 -9 -1 -10 14 -7 12 4
22 3 22 -2 0 -6 37 -18 75 -24 6 -1 9 -7 7 -14 -1 -8 7 -11 23 -8 14 3 23 1
20 -5 -4 -5 1 -9 10 -9 9 0 30 -7 46 -16 17 -8 40 -17 51 -19 11 -3 32 -12 47
-22 14 -10 28 -18 31 -18 43 -8 772 -360 763 -369 -4 -3 1 -6 10 -6 8 0 28 -7
44 -15 59 -30 120 -55 134 -55 8 0 19 -4 24 -8 6 -4 28 -14 50 -22 37 -12 93
-45 106 -62 10 -14 112 -40 136 -35 17 3 30 -3 47 -25 l23 -30 6 30 c8 39 39
57 70 41 21 -12 21 -11 7 6 -14 17 -14 17 6 7 14 -8 24 -8 31 -1 8 8 13 7 18
-2 5 -7 4 -10 -2 -6 -5 3 -10 0 -10 -8 0 -22 15 -18 22 5 4 11 11 18 16 14 5
-3 6 -11 2 -17 -4 -7 0 -6 10 2 9 7 17 9 17 3 0 -5 16 -19 36 -31 19 -12 32
-25 29 -31 -4 -6 1 -7 11 -3 12 4 15 3 10 -5 -4 -7 -1 -12 8 -12 9 0 16 -6 16
-14 0 -8 5 -18 10 -21 6 -4 10 11 10 37 0 41 -2 44 -55 78 -30 19 -55 39 -55
44 0 4 -6 6 -14 3 -8 -3 -16 -3 -18 1 -2 4 -18 18 -35 31 -42 29 -45 53 -5 41
44 -13 90 -39 96 -55 3 -8 11 -15 18 -15 7 -1 25 -17 41 -37 l27 -36 0 3034 0
3033 -28 -29 c-16 -17 -140 -138 -277 -270 -265 -256 -368 -358 -480 -476 -38
-41 -126 -125 -195 -188 -69 -63 -129 -120 -134 -128 -4 -8 -24 -21 -42 -29
-19 -8 -32 -19 -29 -24 3 -6 3 -10 -2 -10 -12 -1 -83 -67 -83 -78 0 -13 -58
-62 -73 -62 -7 0 -32 -21 -57 -47 -25 -25 -39 -43 -31 -38 10 5 12 4 7 -3 -4
-7 -13 -12 -19 -12 -7 0 -32 -19 -57 -43 -96 -93 -160 -154 -204 -192 -25 -22
-46 -46 -46 -53 0 -7 -4 -11 -10 -7 -5 3 -27 -14 -50 -39 -22 -24 -56 -54 -75
-67 -19 -13 -35 -29 -35 -36 0 -7 -10 -18 -22 -24 -34 -18 -163 -158 -163
-178 -1 -9 -7 -15 -14 -13 -8 2 -59 -42 -115 -96 -155 -152 -219 -212 -226
-212 -3 0 -12 -6 -19 -12 -6 -7 -15 -13 -20 -13 -4 0 -25 -16 -47 -36 -107
-99 -193 -179 -248 -231 -61 -59 -71 -65 -80 -49 -8 13 -36 7 -46 -9 -4 -7
-15 -10 -23 -7 -10 4 -18 -2 -22 -16 -6 -19 -8 -20 -12 -4 -6 22 -12 22 -34
-5 -15 -17 -19 -18 -19 -5 0 10 -7 15 -19 12 -14 -3 -18 1 -14 16 5 17 -4 23
-28 21 -3 -1 -17 21 -31 48 -16 31 -29 45 -35 39 -6 -6 -10 3 -10 26 0 28 4
35 19 35 11 0 17 4 13 9 -3 5 0 13 6 17 20 12 40 73 30 92 -6 12 -4 24 10 41
10 13 19 32 19 42 0 10 5 19 11 19 6 0 9 -9 6 -20 -3 -11 -1 -18 3 -15 5 3 11
1 15 -5 3 -5 -1 -10 -9 -10 -17 0 -22 -35 -7 -44 12 -8 22 19 28 69 3 30 13
48 38 73 19 17 32 32 28 32 -9 0 61 60 70 60 5 0 5 5 2 10 -3 6 1 10 9 10 8 0
28 17 43 38 15 20 45 53 66 73 20 19 37 40 37 46 0 6 7 16 16 23 8 8 20 22 26
33 8 16 4 15 -23 -6 -19 -14 -42 -34 -51 -44 -18 -19 -22 -22 -80 -67 -68 -51
-40 -15 85 108 177 175 552 541 624 608 57 54 83 72 68 48 -3 -6 -2 -10 3 -10
6 0 13 7 16 16 3 8 10 13 14 10 5 -3 9 1 9 9 0 8 -4 15 -9 15 -4 0 -8 -4 -8
-10 0 -5 -5 -10 -11 -10 -8 0 -7 5 1 15 8 9 21 13 32 9 14 -4 21 0 25 15 3 12
13 21 24 21 11 0 18 3 17 8 -3 14 14 42 23 36 11 -7 70 41 62 50 -4 3 2 6 12
6 13 0 15 3 6 13 -12 15 3 37 26 37 8 0 16 6 19 14 3 8 12 12 20 9 10 -4 12 0
8 11 -3 9 -1 16 5 16 15 0 86 68 86 83 0 7 7 12 15 12 8 0 28 19 45 42 16 23
35 42 41 42 12 1 60 62 56 73 -1 4 5 5 13 2 10 -4 15 0 15 10 0 9 7 19 15 22
8 4 13 10 10 14 -3 4 3 7 12 6 9 0 26 13 37 31 12 18 26 32 33 33 6 0 14 8 18
19 8 26 18 37 253 279 114 118 252 260 307 317 360 372 699 718 752 768 l63
59 0 814 c0 448 -3 814 -6 814 -4 0 -43 -30 -88 -68 -44 -37 -93 -75 -107 -84
-14 -9 -43 -35 -65 -57 -21 -23 -57 -54 -79 -69 -22 -15 -46 -33 -53 -40 -8
-7 -30 -25 -50 -40 -21 -15 -41 -32 -47 -39 -12 -13 -98 -85 -231 -193 -247
-200 -284 -232 -279 -240 2 -4 15 -10 27 -13 22 -5 288 -105 588 -222 80 -31
153 -59 163 -62 9 -3 17 -9 17 -14 0 -14 -572 -609 -585 -609 -3 0 -5 101 -5
224 l0 224 -275 102 -275 102 -53 -40 c-28 -23 -97 -78 -153 -124 -55 -46
-165 -135 -243 -198 -79 -63 -184 -149 -235 -190 -50 -42 -185 -152 -301 -245
-313 -252 -352 -284 -574 -469 -112 -94 -213 -178 -225 -186 -35 -25 -534
-425 -841 -675 -159 -130 -470 -381 -690 -558 -679 -545 -711 -572 -690 -575
11 -1 49 -9 85 -17 36 -8 83 -17 105 -20 22 -3 44 -10 48 -14 19 -19 -36 -31
-153 -34 -123 -3 -145 2 -152 35 -2 13 -11 10 -43 -19 l-40 -34 32 6 c22 4 46
0 78 -15 25 -11 51 -18 57 -14 6 4 8 3 5 -3 -9 -14 37 -33 78 -33 19 0 36 -4
39 -9 5 -8 42 -18 101 -27 11 -2 40 -7 65 -12 40 -9 42 -10 13 -11 -18 -1 -33
-5 -33 -9 0 -12 62 -40 106 -48 22 -4 56 -16 76 -26 20 -11 47 -20 60 -22 27
-3 98 -32 98 -40 0 -3 -7 -3 -15 0 -8 4 -15 1 -15 -5 0 -6 12 -16 26 -21 22
-9 24 -13 14 -25 -11 -13 -10 -14 2 -10 10 4 17 -1 20 -13 7 -25 -18 -29 -120
-18 -43 5 -68 3 -78 -5 -8 -6 -14 -8 -14 -3 0 5 -4 3 -8 -4 -14 -21 -95 -18
-202 8 -19 4 -42 8 -50 8 -8 0 -28 2 -45 5 -16 3 -64 9 -105 12 -41 4 -83 11
-93 16 -21 12 -95 14 -125 5 -12 -4 -25 -18 -28 -31 -3 -13 -15 -27 -25 -30
-10 -4 -19 -11 -19 -16 0 -25 -118 8 -122 35 -3 22 -5 31 -15 56 -13 32 -5 91
16 108 12 10 13 12 1 6 -8 -4 -34 -22 -57 -41 -23 -18 -48 -32 -54 -31 -7 2
-13 -3 -14 -10 0 -14 -25 -33 -36 -26 -4 2 -13 -4 -20 -14 -13 -15 -12 -16 4
-3 9 7 17 11 17 8 0 -3 -19 -20 -42 -38 -24 -19 -36 -25 -28 -15 14 18 14 18
-7 6 -12 -8 -20 -17 -17 -21 2 -4 -18 -26 -46 -49 -27 -23 -50 -37 -50 -30 0
6 -18 -3 -40 -20 -22 -17 -38 -35 -35 -40 3 -4 -12 -20 -33 -36 l-37 -27 25
28 c19 22 20 26 5 15 -40 -28 -74 -63 -69 -71 2 -4 -1 -11 -7 -15 -8 -4 -9 -3
-5 4 4 7 3 12 -3 12 -10 0 -26 -19 -26 -32 0 -3 -4 -10 -9 -15 -5 -5 -6 -3 -2
5 14 24 -10 11 -59 -34 -27 -25 -44 -42 -36 -38 9 5 12 3 7 -4 -4 -7 -15 -12
-25 -12 -10 0 -28 -12 -42 -27 -22 -25 -22 -26 -2 -9 24 20 32 10 11 -13 -9
-9 -9 -12 -1 -7 6 3 24 1 38 -6 26 -12 27 -15 21 -63 -3 -27 -12 -55 -20 -60
-7 -6 -60 -23 -117 -39 -57 -15 -123 -34 -146 -41 -52 -17 -55 -5 -8 31 19 14
32 31 28 37 -3 5 -2 7 3 4 11 -6 149 96 149 110 0 4 4 15 9 22 5 8 -5 5 -22
-8 -18 -12 -30 -27 -27 -32 4 -5 -1 -9 -11 -9 -9 0 -31 -12 -49 -27 -18 -16
-53 -45 -78 -67 -25 -21 -61 -47 -79 -58 -18 -11 -42 -29 -53 -39 -24 -23 -54
-48 -90 -75 -55 -39 -222 -173 -241 -192 -7 -6 -18 -12 -24 -12 -6 0 -8 -4 -5
-10 3 -5 1 -10 -5 -10 -6 0 -16 -4 -23 -10 -73 -60 -106 -84 -124 -93 -13 -6
-23 -14 -23 -18 0 -5 -33 -34 -72 -66 -40 -31 -77 -62 -83 -68 -15 -17 -83
-65 -91 -65 -4 0 -26 -17 -49 -38 -51 -45 -217 -163 -262 -186 -42 -21 -42 -5
-2 33 17 17 29 36 26 43 -4 9 -6 10 -6 1 -1 -7 -7 -10 -15 -7 -8 3 -17 0 -21
-5 -3 -6 -10 -9 -15 -6 -5 3 -16 -5 -24 -17 -15 -21 -16 -21 -17 -3 -1 16 -2
15 -8 -5 -8 -30 -38 -35 -33 -6 3 17 2 18 -13 6 -12 -10 -18 -11 -28 -1 -9 10
-9 11 3 6 11 -4 16 1 17 15 1 11 -4 20 -12 20 -8 0 -17 4 -20 10 -4 6 1 7 12
4 17 -5 17 -5 -1 10 -22 18 -16 29 24 46 23 9 28 15 18 21 -10 7 -10 9 2 9 8
0 29 16 45 36 17 20 59 61 95 91 36 30 112 94 170 143 155 131 451 381 560
472 52 43 119 100 149 126 30 26 65 56 79 67 14 11 44 36 66 55 23 20 77 65
121 100 44 36 87 72 96 80 8 8 33 29 55 45 21 17 53 44 71 60 18 17 46 42 62
57 16 16 34 28 40 28 5 0 25 18 42 40 18 22 37 40 43 40 10 0 123 92 232 189
55 49 123 107 294 253 80 67 159 135 175 150 72 63 202 173 360 303 93 77 427
354 741 615 314 261 642 534 729 605 87 72 190 157 229 191 39 33 141 118 226
188 85 71 167 138 181 151 14 12 64 54 110 91 87 72 284 235 617 512 107 89
213 177 235 195 22 17 99 81 171 141 72 60 203 168 291 239 88 72 162 133 165
137 3 3 26 22 52 43 26 21 53 43 60 50 7 7 40 33 73 59 33 25 78 64 100 87 22
22 45 41 50 41 6 0 38 24 71 52 34 29 81 69 104 88 23 19 47 40 54 45 6 6 32
26 56 45 25 19 62 50 82 69 21 19 53 44 72 57 19 13 36 27 38 31 1 5 21 21 43
38 51 38 71 54 105 85 59 53 76 67 115 96 21 16 46 36 55 44 18 18 74 63 185
151 43 35 89 73 101 84 12 12 54 45 93 75 l70 55 1 433 0 432 -315 0 -314 0
-80 -70 c-43 -39 -82 -70 -85 -70 -3 0 -3 32 0 70 l7 70 -751 0 -750 0 -11
-32 c-6 -18 -10 -47 -9 -64 0 -17 -2 -36 -6 -42 -3 -6 -10 -30 -15 -54 -5 -24
-14 -66 -20 -95 -6 -29 -13 -74 -17 -100 -3 -26 -9 -52 -12 -58 -6 -9 -18 -73
-27 -134 -7 -57 -26 -144 -35 -171 -5 -14 -12 -45 -14 -69 -11 -93 -29 -152
-45 -149 -22 5 -23 -3 69 413 53 237 98 440 117 528 l5 27 -979 0 -979 0 -26
-47 c-63 -118 -90 -163 -99 -163 -5 0 -28 17 -52 38 -26 24 -71 50 -117 67
-118 44 -170 73 -164 90 5 13 -626 15 -5635 15 l-5641 0 0 -1960z m15265 1790
c4 -6 -7 -15 -24 -21 -18 -7 -28 -16 -25 -24 3 -8 -5 -19 -18 -26 -13 -7 -43
-31 -67 -53 -77 -71 -98 -90 -152 -136 -30 -25 -83 -73 -119 -107 -36 -34 -83
-75 -105 -92 -52 -40 -56 -44 -81 -72 -21 -25 -89 -86 -164 -149 -23 -19 -57
-49 -74 -66 -18 -18 -56 -46 -84 -64 -29 -17 -52 -37 -52 -44 0 -7 -12 -22
-27 -32 -14 -10 -34 -27 -44 -36 -10 -9 -31 -23 -46 -31 -15 -8 -40 -28 -54
-43 -14 -16 -45 -45 -68 -64 -24 -19 -73 -64 -109 -98 -37 -35 -89 -79 -117
-97 -27 -19 -72 -54 -100 -79 -27 -26 -57 -46 -67 -46 -15 0 -39 -18 -138
-104 -80 -69 -155 -125 -158 -117 -3 9 76 87 126 125 16 12 84 69 153 127 68
59 255 218 414 354 160 136 317 271 350 300 33 29 98 85 145 124 47 40 112 96
145 124 32 29 131 112 220 185 88 73 169 141 180 151 23 22 147 121 151 121 2
0 6 -5 9 -10z m-4400 -449 c6 8 10 7 17 -5 6 -11 21 -15 48 -14 21 1 46 -5 55
-12 11 -9 15 -9 15 0 0 7 10 4 25 -8 14 -11 49 -26 78 -33 28 -6 68 -21 89
-31 37 -19 57 -47 35 -49 -67 -5 -96 -3 -119 9 -15 7 -33 10 -39 6 -8 -4 -9
-3 -5 5 5 8 -22 25 -81 52 -48 22 -103 47 -120 55 -18 8 -33 20 -33 26 0 7 5
7 14 -1 11 -9 16 -9 21 0z m-1596 -168 c17 -35 33 -63 36 -63 3 0 3 5 -1 11
-4 7 -1 10 7 7 18 -7 15 -128 -3 -143 -7 -5 -19 -22 -27 -37 -15 -29 -61 -80
-101 -113 -30 -24 -105 -45 -160 -45 -43 0 -48 6 -26 35 8 11 11 26 8 34 -4
10 -1 13 11 8 11 -4 17 -1 17 8 0 8 13 29 29 47 38 45 121 226 121 267 0 27
-12 27 -28 1 -7 -11 -17 -20 -23 -20 -6 0 -1 12 10 26 12 15 21 35 21 44 0 10
7 23 15 30 8 7 15 22 16 34 0 23 21 -12 78 -131z m1358 96 c60 -23 171 -63
248 -91 163 -57 184 -74 125 -98 -17 -7 -35 -21 -41 -31 -5 -11 -15 -19 -22
-19 -7 0 -39 -13 -70 -30 -32 -16 -65 -30 -74 -30 -9 0 -13 -6 -10 -15 5 -12
-2 -11 -41 4 -58 23 -101 41 -127 52 -46 20 -159 58 -162 55 -2 -2 28 -16 67
-31 39 -15 69 -29 66 -32 -2 -2 -14 1 -26 7 -12 6 -27 9 -33 7 -7 -3 -55 -73
-107 -156 -52 -83 -117 -173 -145 -201 -49 -48 -256 -180 -284 -180 -20 0 -12
16 126 238 86 139 130 202 142 201 29 -3 41 1 41 12 0 5 -5 7 -12 3 -7 -4 -8
-3 -4 5 4 6 11 9 15 6 11 -6 33 20 62 75 13 25 27 48 32 51 8 6 65 123 87 179
13 34 29 60 36 60 2 0 52 -18 111 -41z m-10047 -64 c36 -3 36 -4 14 -20 -19
-14 -19 -14 1 -15 13 0 25 -11 34 -31 16 -36 57 -56 83 -40 24 15 31 14 24 -5
-3 -8 -2 -12 4 -9 6 3 10 0 10 -7 0 -9 3 -9 10 2 7 11 10 11 10 2 0 -7 4 -11
8 -8 13 8 85 -20 127 -49 21 -14 32 -25 26 -25 -9 0 -8 -4 1 -14 7 -8 16 -12
20 -10 13 8 36 -8 43 -29 4 -14 8 -17 12 -9 8 20 27 14 45 -15 12 -18 18 -22
18 -12 0 36 113 4 164 -47 15 -16 33 -29 40 -29 6 0 13 -13 16 -29 5 -29 33
-48 57 -39 8 3 11 -3 8 -16 -2 -12 0 -19 6 -16 5 4 9 2 9 -3 0 -8 27 -21 53
-26 5 0 14 -8 20 -17 7 -9 22 -15 34 -14 12 1 20 -2 17 -7 -3 -4 0 -8 6 -8 6
0 8 -5 4 -12 -4 -7 -3 -8 4 -4 6 4 17 -2 24 -14 7 -11 19 -20 26 -20 7 0 15
-7 18 -15 4 -8 10 -12 15 -9 5 3 8 0 7 -7 -2 -7 7 -18 20 -24 12 -5 22 -13 22
-18 0 -4 -5 -5 -12 -1 -7 4 -8 3 -4 -5 5 -7 16 -9 28 -5 13 4 18 2 14 -5 -8
-12 48 -44 59 -33 5 4 5 1 1 -5 -4 -8 -2 -13 6 -13 18 0 134 -82 168 -118 29
-30 56 -50 83 -58 9 -4 17 -10 17 -13 0 -4 21 -22 48 -39 26 -17 62 -45 80
-61 18 -17 36 -31 38 -31 7 0 156 -117 243 -190 69 -58 218 -177 275 -220 37
-27 304 -238 323 -255 43 -37 318 -255 378 -300 22 -16 49 -38 60 -48 11 -11
43 -37 70 -58 28 -22 77 -61 110 -89 33 -27 71 -56 85 -64 14 -8 45 -33 70
-57 38 -36 104 -90 279 -227 19 -15 39 -29 45 -31 5 -2 19 -14 29 -25 10 -12
15 -14 11 -6 -4 8 6 3 22 -11 16 -15 43 -35 60 -45 17 -11 33 -23 35 -29 2 -5
7 -9 10 -8 3 1 41 -31 84 -72 43 -41 82 -72 86 -69 4 2 11 -1 16 -8 4 -7 35
-35 68 -63 33 -27 71 -59 85 -72 14 -12 36 -31 50 -41 23 -18 23 -22 11 -45
-19 -36 -205 -217 -223 -217 -14 0 -21 4 -111 76 -29 22 -90 69 -136 105 -47
35 -112 86 -145 112 -34 26 -92 72 -131 101 -38 29 -100 77 -137 107 -37 30
-89 71 -115 91 -27 21 -59 48 -73 60 -14 13 -51 43 -84 68 -75 57 -108 83
-187 144 -53 41 -59 43 -31 15 17 -19 32 -39 32 -44 0 -4 -3 -6 -6 -3 -3 4
-21 0 -40 -8 -33 -14 -44 -8 -24 12 6 6 0 10 -18 12 -21 1 -23 0 -12 -8 9 -6
10 -10 3 -10 -6 0 -15 5 -18 11 -4 6 -13 8 -21 5 -8 -3 -14 -1 -14 4 0 5 -7 7
-16 3 -14 -5 -16 0 -12 28 3 19 8 41 12 50 5 12 -7 31 -46 68 -42 41 -49 51
-33 52 14 0 16 2 5 6 -8 3 -26 15 -39 27 -13 11 -21 15 -16 7 5 -9 3 -12 -6
-9 -8 3 -14 10 -14 17 0 13 -26 32 -35 26 -4 -2 -36 19 -71 47 -258 207 -429
350 -494 412 -42 40 -195 171 -258 221 -21 17 -57 46 -81 65 -23 19 -88 70
-144 113 -56 43 -102 82 -102 87 0 6 -5 10 -11 10 -6 0 -16 6 -24 13 -14 14
-29 26 -112 93 -32 26 -60 50 -63 53 -3 3 -25 21 -50 40 -25 19 -54 43 -65 53
-11 11 -58 49 -105 86 -46 37 -100 82 -119 100 -19 17 -38 32 -42 32 -4 0 -23
15 -41 33 -59 55 -97 87 -106 87 -5 0 -19 11 -32 25 -12 13 -27 22 -32 19 -5
-3 -8 -2 -7 3 3 19 -2 34 -10 29 -4 -3 -19 8 -31 24 -12 16 -31 32 -41 35 -11
4 -19 13 -19 21 0 8 -4 14 -9 14 -15 0 -126 110 -123 122 1 5 -1 7 -6 4 -5 -3
-15 4 -22 15 -8 10 -20 19 -26 19 -15 0 -26 28 -17 42 3 7 1 8 -5 4 -7 -4 -12
-3 -12 3 0 6 -6 8 -13 5 -10 -4 -12 3 -9 26 2 17 0 30 -4 29 -5 -1 -18 -1 -28
0 -20 1 -20 1 0 17 14 12 15 14 3 11 -11 -4 -16 0 -15 11 1 10 -6 16 -16 16
-10 -1 -16 2 -13 6 8 12 -29 47 -44 42 -8 -3 -11 0 -7 6 3 5 -1 12 -9 16 -8 3
-15 12 -15 20 0 7 -7 17 -15 20 -9 3 -15 14 -13 23 2 13 -3 17 -20 16 -19 -2
-21 -1 -10 11 11 12 18 12 48 -1 19 -9 46 -17 60 -18z m6349 -259 c-2 -2 -39
-19 -82 -36 -42 -18 -76 -34 -74 -36 1 -2 54 10 117 26 63 17 139 30 170 30
51 0 57 -2 73 -30 23 -39 52 -45 121 -27 31 7 56 13 56 11 0 -2 -19 -12 -42
-23 -24 -11 -49 -24 -56 -29 -17 -11 -5 -42 14 -35 9 3 14 -1 14 -11 0 -9 7
-19 16 -23 8 -3 13 -12 10 -19 -3 -8 -1 -14 3 -14 19 0 21 -34 3 -52 -26 -27
-249 -109 -767 -284 -460 -156 -552 -180 -735 -194 -58 -5 -121 -11 -140 -14
-19 -4 -29 -4 -22 0 6 3 12 12 12 20 0 8 5 14 10 14 6 0 10 11 10 24 0 14 -4
28 -10 31 -5 3 -10 29 -10 57 0 45 4 54 36 85 36 34 159 99 307 163 42 19 77
38 77 42 0 5 5 6 10 3 6 -3 10 -2 10 3 0 17 199 95 600 233 237 82 280 95 269
85z m4109 -116 c2 0 0 5 -3 10 -10 16 12 12 66 -11 75 -32 55 -35 -36 -4 -11
3 -8 -1 8 -10 15 -8 27 -19 27 -22 0 -6 -77 -150 -185 -348 -12 -22 -50 -94
-85 -160 -35 -66 -93 -174 -130 -240 -37 -66 -91 -165 -120 -220 -49 -93 -163
-300 -249 -455 -20 -36 -45 -82 -56 -102 -15 -30 -24 -37 -40 -32 -42 13 -66
37 -138 141 -91 132 -111 170 -99 186 5 7 31 53 57 102 87 164 117 220 140
260 20 35 124 236 220 425 19 36 44 88 56 115 44 95 170 200 393 323 96 53
111 59 139 51 18 -5 33 -9 35 -9z m-2509 -477 c-18 -21 -64 -69 -100 -108 -36
-38 -88 -95 -115 -125 -27 -30 -71 -78 -97 -107 -27 -28 -61 -66 -75 -84 -15
-18 -50 -58 -78 -89 -147 -158 -188 -200 -193 -195 -6 6 -81 -65 -81 -78 0 -4
6 -5 13 -1 6 4 -20 -27 -58 -67 -39 -41 -111 -117 -160 -169 -49 -52 -139
-146 -199 -208 l-110 -113 -153 -74 c-166 -81 -197 -92 -208 -75 -5 8 -11 8
-23 -1 -56 -42 182 192 282 277 38 33 138 127 223 209 86 83 163 153 173 157
10 4 25 17 34 30 9 12 16 19 16 15 0 -4 12 5 28 20 15 16 42 39 60 52 31 22
34 22 32 5 -4 -35 0 -45 13 -38 6 5 0 -8 -15 -28 -53 -69 -28 -52 77 52 58 58
109 104 113 104 4 -1 6 2 5 6 -3 11 613 670 626 670 3 0 -11 -17 -30 -37z
m1530 -72 c-13 -21 -75 -120 -138 -220 -131 -208 -123 -205 -187 -79 l-33 66
44 50 c60 66 286 222 324 222 9 0 6 -11 -10 -39z m3184 24 c35 -8 83 -21 107
-30 34 -12 46 -13 58 -3 13 11 14 10 10 -2 -2 -8 -34 -39 -69 -69 -35 -29 -88
-75 -118 -102 -49 -45 -81 -64 -66 -39 3 5 0 7 -9 4 -12 -4 -86 22 -86 31 0 1
5 17 11 35 11 30 10 34 -17 57 -16 13 -22 21 -14 16 19 -10 60 -11 54 -2 -2 4
5 11 16 14 18 6 19 9 8 23 -11 14 -10 15 5 9 15 -6 18 -2 16 21 -3 28 6 52 21
52 5 0 37 -7 73 -15z m-8725 -274 c20 -27 23 -28 60 -18 33 9 43 8 57 -6 19
-19 30 -22 19 -6 -4 8 0 8 15 0 11 -7 21 -16 21 -20 0 -5 11 -12 25 -15 14 -4
25 -13 25 -21 0 -8 7 -15 15 -15 8 0 15 -7 15 -15 0 -8 6 -15 14 -15 8 0 22
-8 32 -17 10 -10 21 -18 25 -18 38 0 4 -57 -51 -85 -78 -40 -187 -22 -257 43
-74 68 -100 146 -69 205 20 39 27 40 54 3z m5173 -119 c19 -20 42 -53 53 -73
l18 -35 -40 -64 c-23 -36 -62 -99 -87 -140 -25 -41 -51 -84 -58 -94 -183 -286
-242 -381 -269 -426 -17 -30 -60 -99 -95 -152 -35 -54 -63 -100 -63 -103 0 -3
-8 -18 -18 -33 -11 -15 -30 -45 -44 -67 -13 -22 -36 -58 -50 -80 -14 -22 -85
-137 -158 -255 -72 -118 -161 -262 -197 -320 -36 -58 -97 -159 -135 -225 -38
-66 -66 -106 -62 -90 13 56 102 322 133 397 16 40 47 125 69 188 39 115 55
149 103 225 14 22 29 47 32 55 4 8 25 42 47 75 21 33 56 89 76 125 20 36 51
85 67 109 16 24 66 103 109 175 102 167 195 319 279 454 37 59 81 132 99 162
81 136 142 230 149 230 5 0 24 -17 42 -38z m-6695 -150 c10 -10 37 -28 59 -41
22 -13 45 -32 53 -42 7 -10 19 -19 27 -19 8 0 18 -6 22 -14 4 -7 40 -40 78
-72 39 -32 77 -65 85 -74 8 -8 36 -34 62 -57 26 -24 45 -43 42 -43 -4 0 -1 -7
6 -16 23 -27 -11 -13 -43 19 -16 15 -34 27 -40 27 -7 0 -30 15 -52 34 -63 54
-116 99 -141 121 -12 11 -48 40 -78 64 -31 24 -56 48 -56 52 0 5 -7 9 -15 9
-8 0 -15 3 -15 8 0 4 -11 20 -25 35 -23 24 -24 27 -7 27 10 0 27 -8 38 -18z
m11087 -52 c-14 -16 -31 -26 -39 -23 -10 4 -12 0 -8 -11 4 -11 1 -16 -10 -16
-9 0 -16 -4 -16 -9 0 -5 -16 -24 -36 -43 -20 -18 -53 -50 -73 -70 -21 -21 -41
-38 -44 -38 -4 0 -20 -15 -37 -32 -16 -18 -33 -36 -37 -40 -58 -54 -74 -68
-78 -68 -3 0 -13 -8 -23 -17 -10 -10 -39 -37 -66 -60 -26 -23 -45 -47 -41 -53
4 -6 1 -9 -7 -8 -7 2 -12 -3 -10 -11 3 -12 1 -12 -14 0 -12 9 -15 9 -10 2 4
-8 2 -13 -8 -13 -8 0 -18 -5 -22 -12 -5 -7 -3 -8 5 -3 10 5 10 3 0 -13 -7 -11
-17 -18 -23 -16 -23 8 -40 -14 -45 -57 -1 -4 -7 -7 -13 -6 -36 1 -46 -4 -42
-20 3 -12 -7 -26 -27 -40 -36 -25 -54 -22 -56 10 -2 16 0 18 6 8 7 -11 11 -10
19 5 5 11 8 26 7 36 -2 11 3 15 19 14 14 -2 23 3 23 11 0 7 -7 13 -16 13 -14
0 -14 2 -1 10 22 14 43 12 34 -2 -4 -8 -3 -9 2 -5 5 5 9 14 9 21 0 16 51 76
64 76 5 0 13 9 16 21 4 11 9 18 12 15 3 -2 15 6 28 20 12 13 27 24 33 24 6 0
22 14 35 30 14 17 30 30 35 30 5 0 31 22 58 50 27 27 52 50 56 50 4 0 32 24
62 53 30 28 75 68 101 87 26 19 66 49 88 66 28 21 46 28 54 22 7 -5 14 -5 18
2 3 5 1 10 -4 10 -6 0 -11 5 -11 11 0 8 5 8 15 -1 15 -12 20 -4 16 22 0 4 6 5
13 2 12 -4 9 -12 -11 -34z m-13493 -56 c103 -88 146 -127 151 -140 2 -5 27
-27 54 -48 28 -22 57 -47 66 -55 9 -9 54 -50 100 -91 46 -41 92 -84 104 -95
11 -11 47 -42 80 -69 33 -28 62 -53 65 -56 7 -9 215 -197 486 -440 236 -212
307 -276 369 -335 41 -38 183 -168 211 -192 19 -16 70 -63 284 -258 144 -131
264 -241 295 -270 27 -25 115 -103 195 -175 9 -8 55 -50 103 -94 47 -43 95
-85 107 -95 12 -9 48 -41 82 -71 33 -30 69 -61 79 -68 26 -18 24 -37 -7 -57
-25 -16 -27 -16 -62 9 -21 14 -64 50 -97 80 -33 30 -112 100 -175 156 -63 57
-147 132 -186 169 -39 36 -84 77 -100 90 -35 28 -193 170 -214 191 -8 8 -46
42 -85 74 -117 100 -107 92 -99 73 8 -21 -4 -22 -27 -1 -16 14 -18 14 -24 -6
-9 -29 -39 -21 -45 12 -4 22 -8 25 -20 18 -21 -14 -33 -12 -24 3 4 6 -6 -3
-23 -20 -32 -34 -59 -47 -30 -15 18 20 22 32 9 32 -13 0 -42 -57 -42 -84 0
-14 -9 -35 -20 -46 -11 -11 -20 -33 -20 -49 0 -16 -7 -34 -15 -41 -8 -7 -15
-17 -15 -23 0 -6 -7 -17 -15 -26 -40 -44 -72 -87 -69 -96 1 -5 -21 -30 -49
-54 -29 -24 -106 -95 -172 -156 -66 -62 -142 -133 -170 -159 -30 -28 -46 -49
-40 -53 12 -9 13 -28 3 -38 -4 -4 0 -14 8 -22 21 -22 15 -24 -44 -14 -48 7
-55 6 -83 -18 -62 -54 -54 -58 416 -186 50 -13 122 -34 160 -45 39 -12 84 -25
100 -30 17 -4 55 -16 85 -25 30 -9 78 -22 105 -30 89 -24 209 -63 250 -81 22
-9 50 -18 62 -20 12 -1 32 -10 45 -18 14 -9 29 -13 33 -9 5 5 3 0 -4 -9 -30
-39 -57 -36 -386 52 -44 12 -87 23 -95 25 -8 2 -67 18 -130 35 -63 17 -146 40
-185 51 -38 10 -79 22 -90 25 -11 3 -36 9 -55 14 -19 4 -80 20 -134 35 -55 15
-109 29 -120 31 -12 2 -52 12 -89 22 -81 22 -127 18 -127 -9 0 -11 6 -20 13
-21 27 -3 34 -5 82 -20 53 -16 62 -19 245 -69 63 -17 167 -48 230 -69 63 -21
149 -47 190 -59 41 -12 95 -29 120 -37 25 -7 115 -34 202 -58 86 -24 163 -48
172 -53 12 -7 -1 -20 -59 -63 -42 -30 -99 -72 -128 -94 -28 -21 -61 -43 -72
-48 -15 -7 -124 20 -432 107 -226 63 -414 115 -416 115 -3 0 -60 66 -128 146
-68 81 -146 170 -174 198 -105 108 -205 234 -205 259 0 14 4 27 10 29 5 2 35
28 67 59 32 30 83 74 114 96 31 23 62 47 70 55 26 24 264 213 289 230 14 9 34
24 45 35 73 67 232 172 320 210 42 18 51 19 58 7 11 -19 29 -18 53 4 10 9 28
17 39 17 11 0 25 7 31 15 9 11 15 12 26 2 12 -10 19 -8 34 13 13 18 21 21 31
13 9 -7 13 -7 13 1 0 6 9 11 20 11 11 0 20 4 20 8 0 5 10 19 23 32 12 14 21
28 19 32 -1 5 2 8 8 8 28 0 -4 38 -150 179 -88 84 -160 159 -160 165 0 11
-173 178 -295 287 -27 24 -66 60 -85 79 -32 30 -221 206 -254 235 -162 144
-310 281 -429 398 -49 48 -93 87 -98 87 -4 0 -11 5 -15 12 -5 7 -3 8 6 3 9 -5
11 -4 6 4 -4 6 -24 22 -44 35 -21 13 -65 51 -100 85 -35 33 -68 61 -73 61 -6
0 -8 4 -5 8 3 5 -8 19 -25 32 -16 14 -29 31 -29 39 0 9 8 5 23 -11 12 -13 29
-27 37 -31 8 -4 26 -15 40 -24 19 -14 16 -8 -10 21 -19 22 -51 55 -70 74 -54
53 -14 26 80 -54z m11944 -185 c-10 -11 -60 -54 -112 -97 -52 -42 -111 -92
-131 -110 -20 -18 -58 -52 -85 -75 -27 -23 -104 -89 -170 -147 -67 -58 -148
-127 -181 -155 -33 -27 -73 -62 -90 -77 -16 -16 -37 -28 -45 -28 -14 0 39 51
143 137 25 21 81 70 124 108 43 39 96 84 117 100 21 17 53 44 70 61 17 17 76
69 131 116 55 47 132 113 170 147 39 33 72 56 74 50 1 -5 -5 -19 -15 -30z
m-2505 -28 c75 -114 131 -211 131 -227 0 -9 11 -32 25 -50 24 -31 24 -33 6
-55 -16 -22 -64 -107 -201 -364 -24 -44 -70 -126 -102 -183 -32 -57 -58 -105
-58 -107 0 -1 -27 -51 -60 -110 -33 -59 -60 -109 -60 -111 0 -2 -13 -25 -28
-51 -16 -26 -55 -97 -87 -158 -32 -60 -67 -126 -78 -145 -40 -69 -92 -168
-170 -320 -187 -366 -302 -581 -316 -590 -21 -14 -93 -163 -88 -182 4 -12 -5
-41 -19 -69 -36 -73 -30 -106 24 -123 12 -4 22 -11 22 -15 0 -5 48 -7 108 -6
l107 3 60 57 c63 60 103 90 109 84 7 -6 -47 -63 -90 -95 -21 -16 -45 -37 -52
-47 -9 -11 -21 -16 -32 -12 -11 3 -26 -2 -37 -12 -39 -40 -181 -163 -187 -163
-3 0 -6 5 -6 10 0 6 -9 21 -21 33 -11 12 -24 31 -29 42 -4 11 -19 27 -34 34
-23 13 -28 12 -45 -3 -10 -10 -27 -16 -36 -14 -19 3 -46 -35 -88 -125 -22 -48
-22 -48 -62 -43 -29 4 -34 3 -19 -4 25 -10 38 -38 26 -54 -11 -13 -60 -101
-117 -211 -40 -75 -54 -90 -226 -242 -106 -94 -192 -163 -204 -163 -23 0 -95
62 -95 83 0 8 8 38 19 68 17 48 39 94 131 264 15 28 55 104 90 170 34 66 66
119 71 117 5 -1 9 4 10 10 2 29 8 50 20 64 17 21 39 60 130 239 65 127 79 162
70 175 -23 31 -32 63 -21 74 5 5 10 16 10 23 0 12 33 66 50 83 3 3 6 14 8 24
6 32 74 97 106 100 35 4 43 14 106 136 26 52 67 129 89 170 23 41 44 84 48 94
3 10 21 46 40 80 18 34 58 110 89 170 31 60 66 125 78 145 12 20 53 95 91 166
37 72 91 173 118 225 28 52 61 112 74 132 12 21 23 39 23 41 0 2 22 44 48 93
27 49 104 197 172 329 67 132 126 245 130 250 4 6 42 78 85 160 43 83 79 153
82 157 7 12 37 -12 62 -51z m-4817 -52 c29 -15 163 -148 163 -161 0 -6 7 -14
15 -17 8 -3 15 -11 15 -18 0 -17 78 -97 131 -135 24 -17 44 -36 44 -41 0 -12
-158 -167 -170 -167 -4 0 -34 20 -66 45 -31 25 -61 45 -65 45 -4 0 -14 6 -21
13 -21 19 -97 67 -107 67 -5 0 -16 6 -23 13 -7 6 -33 25 -58 41 -59 38 -90 66
-90 84 0 7 24 38 53 69 28 30 54 60 56 66 5 15 62 89 76 99 14 10 23 10 47 -3z
m1771 -693 c-4 -7 -63 -73 -130 -146 -68 -73 -120 -136 -117 -141 5 -8 122
-92 319 -227 108 -75 301 -218 350 -259 41 -35 51 -67 28 -91 -7 -8 -11 -18
-8 -23 4 -5 2 -9 -4 -9 -6 0 -20 -19 -32 -42 -12 -24 -28 -51 -37 -60 -8 -10
-11 -18 -7 -18 5 0 -6 -13 -23 -28 -18 -16 -32 -34 -32 -39 0 -12 -66 -73 -79
-73 -19 0 -490 328 -699 487 -46 35 -88 60 -94 57 -12 -8 -201 -204 -278 -289
-70 -77 -223 -237 -324 -340 -43 -44 -85 -89 -93 -101 -13 -20 -9 -54 7 -54
13 0 154 -116 192 -158 21 -23 40 -42 42 -42 3 0 34 -22 70 -49 41 -31 72 -48
83 -45 11 3 28 -5 42 -20 20 -21 22 -28 11 -41 -17 -21 2 -65 29 -65 10 0 24
-7 31 -15 7 -8 15 -13 19 -11 3 2 27 -18 54 -45 26 -27 44 -49 41 -49 -4 0 -1
-6 5 -14 9 -11 9 -20 2 -34 -6 -11 -8 -22 -5 -24 2 -3 0 -17 -5 -32 -7 -17 -7
-26 -1 -26 6 0 10 -5 10 -11 0 -5 -5 -7 -12 -3 -8 5 -9 2 -5 -10 4 -9 3 -14
-2 -11 -5 3 -11 -5 -13 -17 -2 -17 -9 -22 -23 -20 -11 2 -22 7 -25 10 -10 14
-32 13 -27 -1 17 -44 -151 46 -260 139 -11 11 -53 42 -92 69 -38 28 -70 56
-71 63 0 6 -6 12 -12 12 -7 1 -29 14 -48 30 -19 17 -40 30 -46 30 -6 0 -14 10
-17 21 -4 15 -11 20 -21 16 -10 -4 -21 1 -28 13 -7 11 -17 20 -23 20 -6 0 -15
8 -22 19 -15 25 -122 84 -139 77 -8 -3 -14 -3 -14 1 0 5 52 66 139 162 34 38
41 53 12 27 -17 -16 -19 -16 -26 1 -4 10 -9 37 -11 59 -2 39 5 50 103 175 57
74 125 155 151 182 25 26 43 47 39 47 -3 0 -24 -19 -46 -42 -22 -24 -41 -40
-41 -36 0 8 116 155 160 203 53 57 136 150 240 270 58 66 110 123 117 128 13
8 39 34 186 185 121 124 168 153 391 243 114 46 138 49 119 15z m1139 -247
c-28 -50 -30 -65 -23 -132 1 -5 5 -6 10 -3 23 15 17 -30 -12 -87 -25 -51 -30
-67 -20 -76 10 -9 25 8 70 75 60 91 64 93 127 68 14 -5 17 -4 12 4 -4 7 -2 12
3 12 6 0 11 -5 11 -11 0 -5 4 -8 9 -4 5 3 13 0 17 -6 4 -8 3 -9 -4 -5 -7 4
-12 2 -12 -3 0 -6 4 -11 9 -11 5 0 12 -10 15 -22 6 -21 7 -21 16 -6 15 24 39
12 32 -15 -2 -12 -10 -28 -16 -36 -8 -11 -8 -13 0 -8 7 4 9 -2 6 -19 -4 -24
-3 -25 16 -15 29 16 33 14 23 -12 -5 -13 -11 -37 -14 -53 -14 -86 -137 -315
-213 -398 -18 -20 -31 -36 -29 -36 11 0 -44 -47 -67 -57 -21 -10 -27 -9 -32 2
-3 8 -1 17 4 20 6 4 10 14 10 24 0 10 6 24 14 30 8 7 12 21 9 31 -3 11 -1 20
5 20 6 0 14 15 17 33 4 17 11 37 15 42 21 27 50 87 45 95 -3 4 -1 29 4 54 5
25 7 46 5 46 -2 0 -27 -35 -56 -77 -98 -143 -108 -156 -108 -147 0 5 -4 3 -8
-4 -13 -20 -50 -23 -48 -4 0 10 -6 17 -15 16 -14 -1 -14 5 2 62 10 38 14 66 8
69 -5 4 -9 -1 -9 -9 0 -8 -9 -23 -19 -33 -10 -10 -20 -26 -22 -35 -3 -12 -8
-15 -18 -9 -11 7 -9 19 13 67 l27 59 -35 -34 c-33 -32 -43 -31 -36 4 1 5 -7 2
-17 -7 -20 -19 -36 -13 -41 15 -6 35 205 431 248 467 4 3 26 31 50 63 23 32
45 56 47 53 2 -2 -9 -28 -25 -57z m452 -337 c-30 -86 -72 -210 -94 -275 -45
-134 -49 -144 -60 -128 -12 21 -40 1 -34 -24 3 -13 -1 -36 -9 -52 -24 -43 -36
-89 -30 -112 3 -13 -4 -32 -21 -52 -14 -17 -26 -34 -26 -38 0 -4 -12 -21 -27
-38 -28 -30 -59 -36 -73 -12 -4 6 -12 9 -18 5 -6 -3 -14 -1 -18 5 -5 8 -2 10
7 5 8 -4 5 -1 -5 8 -10 8 -23 13 -29 9 -6 -3 -7 -1 -3 6 4 6 9 24 11 39 8 52
15 76 25 86 5 5 10 16 10 24 0 20 96 181 215 362 56 85 128 198 161 251 32 53
62 95 66 92 4 -2 -17 -74 -48 -161z m469 -34 c-15 -76 -180 -443 -207 -460 -6
-4 -7 -8 -2 -8 6 0 1 -8 -10 -19 -23 -22 -59 -66 -55 -66 2 0 -7 -17 -19 -37
-17 -30 -24 -35 -35 -25 -11 10 -10 13 4 19 9 4 11 7 4 7 -12 1 -11 9 4 49 3
9 7 19 8 22 47 137 181 393 246 472 22 26 39 51 39 56 0 9 7 14 27 21 1 1 0
-14 -4 -31z m4021 -67 c4 -5 0 -11 -6 -14 -7 -2 -1 -4 14 -3 14 0 24 4 21 9
-2 4 1 7 6 7 6 0 11 -7 11 -15 0 -8 4 -15 10 -15 5 0 6 -8 3 -17 -6 -15 -5
-16 9 -3 9 8 13 20 10 25 -3 6 -1 6 4 2 5 -5 9 -13 9 -19 0 -6 17 -12 38 -14
24 -2 37 1 37 9 0 8 3 7 9 -2 5 -7 13 -11 19 -7 6 3 9 -7 8 -28 -1 -23 3 -32
11 -29 7 3 11 8 9 12 -3 4 4 7 15 7 24 0 24 -5 2 -22 -16 -12 -16 -12 6 -7 19
5 23 3 18 -9 -3 -10 0 -15 11 -14 12 1 17 -6 16 -21 -1 -24 12 -31 19 -10 3 9
8 9 21 -2 13 -11 16 -11 14 -1 -2 7 3 15 11 18 9 3 11 0 6 -7 -4 -8 1 -14 14
-18 12 -3 21 -10 21 -15 0 -5 -4 -7 -9 -3 -5 3 -12 1 -16 -5 -3 -5 0 -10 8
-10 8 0 18 -12 21 -26 6 -22 9 -24 22 -13 11 9 18 9 26 1 7 -7 19 -12 28 -12
38 0 25 -136 -46 -519 -19 -102 -33 -189 -31 -195 3 -6 -6 -11 -18 -11 -13 0
-21 3 -18 8 7 12 -12 8 -26 -5 -11 -10 -13 -10 -7 0 5 8 0 12 -13 12 -11 0
-23 4 -26 10 -3 6 1 7 12 4 15 -5 15 -4 -1 7 -16 9 -21 10 -24 0 -3 -8 -9 -6
-18 6 -12 16 -15 16 -24 3 -8 -13 -10 -13 -10 1 0 24 -175 93 -208 83 -13 -5
-14 -4 -3 4 10 8 6 12 -20 18 -19 5 -38 9 -44 9 -5 0 -13 5 -17 10 -5 6 -8 5
-8 -3 0 -7 -5 -10 -10 -7 -6 4 -8 10 -5 15 3 4 -4 6 -15 3 -11 -3 -28 1 -37 8
-12 10 -14 10 -9 2 10 -18 -9 -16 -24 2 -7 8 -19 15 -26 15 -13 0 -19 13 -14
35 68 328 164 721 185 755 8 12 22 13 29 1z m2411 -671 c-3 -137 -9 -260 -14
-273 -11 -28 -113 -165 -176 -235 -47 -52 -69 -63 -78 -39 -2 6 -5 132 -6 278
l-2 266 132 127 c72 69 136 126 141 126 5 0 7 -103 3 -250z m-7242 -36 c-5
-37 7 -66 24 -60 12 5 14 1 10 -21 l-5 -28 24 30 23 30 -13 -45 c-25 -87 -27
-98 -12 -102 10 -2 6 -13 -16 -38 l-29 -35 3 45 c2 25 7 48 12 51 5 4 6 15 1
25 -6 17 -8 17 -17 -6 -6 -14 -21 -47 -33 -75 -12 -27 -28 -67 -34 -87 -10
-30 -15 -35 -25 -25 -7 6 -29 21 -50 32 -36 19 -38 19 -48 2 -9 -17 -11 -18
-29 -1 -18 16 -19 16 -27 -2 -17 -41 -46 -80 -66 -90 -24 -11 -56 -7 -56 7 0
6 5 7 12 3 7 -5 8 -3 4 5 -5 7 -14 10 -22 7 -25 -10 -42 4 -35 27 25 83 125
227 164 237 30 8 60 -19 44 -39 -9 -12 -9 -13 0 -7 9 5 12 1 10 -13 -5 -42 20
-19 78 71 33 52 67 102 75 111 19 20 36 16 33 -9z m-2894 -325 c-108 -119
-163 -189 -147 -189 8 0 38 -25 68 -56 30 -31 49 -53 41 -49 -11 6 -10 2 2
-16 22 -31 21 -42 -2 -34 -17 5 -19 2 -16 -25 2 -17 0 -28 -4 -25 -12 7 -21
-34 -16 -65 3 -14 2 -19 -1 -12 -3 6 -12 12 -20 12 -11 0 -9 -6 6 -22 l21 -23
-27 -11 c-19 -8 -23 -13 -13 -17 11 -4 11 -7 2 -14 -7 -5 -11 -19 -8 -31 2
-12 -1 -25 -7 -28 -7 -5 -8 -2 -3 6 5 8 4 11 -3 6 -6 -3 -13 -20 -17 -36 -4
-17 -11 -28 -16 -24 -5 3 1 -12 13 -32 14 -24 17 -35 8 -29 -21 13 -40 15 -40
4 0 -5 -7 -9 -15 -9 -8 0 -15 -5 -15 -12 0 -6 -7 -3 -15 8 -13 18 -14 18 -8
-4 3 -13 2 -22 -3 -21 -5 1 -16 1 -24 0 -12 -1 -13 -3 -1 -10 17 -11 5 -32
-14 -24 -18 6 -20 -18 -2 -37 25 -28 -30 16 -146 114 -64 55 -117 104 -117
111 0 6 17 28 39 49 23 23 37 44 34 54 -6 24 74 117 311 360 207 211 295 286
155 131z m-2558 -587 c-14 -27 -178 -181 -205 -193 -26 -12 -96 -4 -96 11 0 8
127 101 235 172 48 32 81 37 66 10z m1790 -354 c25 -24 97 -90 160 -147 63
-58 153 -141 202 -185 48 -44 87 -87 87 -94 0 -7 4 -11 9 -8 8 5 37 -18 150
-121 19 -17 39 -30 43 -27 4 3 8 -1 8 -8 0 -8 23 -36 51 -63 37 -35 47 -50 37
-56 -12 -8 -11 -10 11 -13 20 -2 23 -16 4 -16 -12 0 -34 14 -50 30 -15 17 -33
30 -39 30 -6 0 -38 26 -71 58 -64 60 -129 116 -178 154 -16 12 -35 29 -41 37
-6 8 -16 11 -22 7 -7 -4 -12 -1 -12 8 0 8 -9 18 -20 21 -11 3 -25 15 -30 26
-6 10 -17 19 -25 19 -8 0 -15 3 -15 8 0 4 -22 25 -50 47 -27 22 -50 45 -50 52
0 7 -6 12 -12 11 -7 -2 -13 6 -13 17 0 11 -7 20 -15 21 -34 2 -40 5 -37 16 1
7 -8 17 -20 23 -13 5 -23 15 -23 22 0 6 -10 15 -22 19 -23 7 -118 82 -118 93
0 8 44 61 50 61 3 0 26 -19 51 -42z m7951 -3 c-2 -5 -7 -9 -11 -8 -4 1 -8 -16
-8 -38 -2 -44 6 -49 27 -16 14 22 16 27 19 48 1 8 5 9 14 0 8 -6 16 -8 20 -5
14 14 25 -38 21 -101 -5 -82 -11 -105 -27 -99 -16 5 -37 -40 -30 -66 3 -11 0
-20 -6 -20 -6 0 -21 -10 -33 -22 -15 -15 -20 -17 -15 -5 3 9 2 19 -4 23 -6 4
-6 11 2 21 10 11 10 16 1 22 -7 4 -10 16 -7 27 6 18 6 18 -5 1 -6 -10 -9 -25
-6 -34 5 -13 4 -14 -9 -3 -9 7 -13 15 -10 18 3 3 -1 12 -8 20 -9 12 -9 14 0 9
9 -6 11 1 8 25 -2 18 -9 34 -14 36 -5 2 -8 11 -5 20 5 15 4 15 -6 0 -6 -10
-10 -21 -10 -24 2 -8 -21 -24 -34 -24 -6 0 -5 5 1 11 8 8 8 18 1 34 l-11 23
-26 -24 c-28 -26 -41 -30 -41 -14 0 6 5 10 11 10 5 0 8 4 4 9 -3 5 4 16 16 25
13 9 19 21 16 30 -4 10 -1 13 9 9 9 -3 14 1 14 12 0 9 -4 14 -9 10 -5 -3 -13
0 -17 6 -4 7 -3 9 3 6 6 -4 13 0 17 8 3 8 1 15 -4 15 -6 0 -10 9 -10 20 0 20
5 21 83 18 49 -2 81 -7 79 -13z m-8132 -22 c-12 -16 -69 -77 -127 -137 -81
-83 -102 -111 -92 -118 10 -7 8 -8 -8 -3 -15 4 -26 -1 -37 -16 -8 -12 -12 -27
-9 -32 3 -6 1 -7 -4 -4 -13 8 -47 -28 -39 -41 6 -11 -17 -34 -30 -31 -15 3
-44 -13 -39 -21 2 -4 -11 -20 -31 -36 -37 -31 -150 -164 -138 -164 3 0 1 -7
-6 -15 -7 -8 -16 -12 -21 -10 -4 3 -11 0 -16 -7 -4 -7 -19 -22 -32 -33 l-24
-20 13 25 c10 21 10 23 -1 13 -16 -15 -33 -17 -24 -3 3 6 1 10 -4 10 -21 0
-11 24 32 79 24 31 60 82 81 114 21 31 61 76 88 100 27 23 82 71 121 107 58
52 72 61 75 47 2 -12 9 -16 19 -13 11 5 14 2 9 -11 -7 -17 66 55 124 123 31
36 127 124 135 124 4 0 -3 -12 -15 -27z m6975 -43 c33 -5 98 -12 145 -15 47
-3 121 -10 165 -16 44 -5 96 -11 115 -13 109 -12 227 -30 239 -36 15 -8 -50
-42 -165 -84 -39 -15 -79 -32 -88 -39 -21 -16 -28 -77 -9 -84 7 -3 10 -10 7
-15 -4 -6 4 -4 17 3 13 7 38 15 54 16 17 2 59 10 95 18 122 28 129 27 162 -30
16 -27 48 -69 71 -92 36 -37 39 -45 29 -65 -8 -17 -11 -19 -11 -6 -1 12 -18
21 -58 33 -32 8 -68 20 -80 25 -13 5 -44 12 -70 16 -27 3 -55 10 -64 15 -47
24 -306 32 -394 12 -22 -6 -49 -6 -60 -2 -18 7 -17 8 6 8 34 1 120 31 115 40
-8 12 -85 2 -119 -15 -21 -11 -28 -12 -19 -3 23 25 12 27 -45 10 -32 -10 -69
-14 -83 -11 -21 6 -17 8 28 18 56 13 88 34 77 52 -4 6 -11 8 -16 5 -5 -4 -9
-1 -9 5 0 6 -4 8 -10 5 -6 -3 -7 1 -4 9 3 9 15 16 27 16 11 0 17 3 14 7 -4 3
-2 12 4 20 9 10 8 17 -1 28 -10 13 -9 15 11 16 13 0 41 2 62 4 20 1 37 -1 37
-5 0 -4 10 -7 23 -6 12 1 38 -2 57 -8 73 -19 179 -10 279 26 51 18 94 38 95
43 0 6 -26 13 -59 17 -33 4 -221 25 -419 47 -197 22 -361 43 -364 46 -7 7 132
-3 213 -15z m-6764 -95 c8 5 276 -234 363 -323 l48 -50 -68 20 c-38 11 -132
37 -209 58 -77 20 -147 40 -155 43 -29 12 -105 30 -137 31 -17 0 -29 4 -27 8
5 8 -93 31 -105 24 -5 -3 -11 -2 -13 4 -1 5 -12 11 -23 13 -11 1 -26 7 -34 11
-10 7 -12 5 -6 -5 6 -11 5 -12 -6 -1 -7 6 -23 12 -36 12 -33 0 -29 13 17 56
21 20 37 41 34 46 -3 5 -1 7 4 6 13 -4 64 51 57 62 -3 5 0 12 6 16 8 4 9 3 5
-4 -11 -18 2 -14 39 11 l35 24 101 -33 c56 -18 105 -31 110 -29z m1796 -8 c40
-39 69 -75 66 -80 -3 -6 -1 -7 5 -3 15 9 94 -63 85 -78 -3 -6 -2 -8 2 -3 11
10 56 -33 48 -46 -3 -6 -2 -7 4 -4 5 3 27 -12 49 -35 21 -22 34 -38 28 -35 -7
4 -14 0 -18 -8 -10 -26 -23 -16 -21 15 2 35 -12 40 -24 8 -5 -14 -5 -28 2 -36
8 -10 5 -14 -11 -19 -12 -3 -22 -9 -22 -14 0 -5 -5 -9 -11 -9 -8 0 -8 5 1 15
7 8 20 15 28 15 13 0 12 3 -4 15 -11 8 -14 15 -6 15 15 0 16 30 1 30 -5 0 -7
-5 -3 -12 4 -7 3 -8 -5 -4 -9 6 -9 11 0 22 6 8 9 17 5 21 -3 3 -6 1 -6 -5 0
-6 -7 -9 -17 -5 -12 5 -15 2 -11 -14 3 -11 -1 -28 -10 -39 -14 -18 -14 -18 -9
3 3 15 -1 23 -14 26 -15 4 -17 2 -9 -13 18 -34 10 -36 -10 -3 -14 24 -24 31
-36 26 -13 -5 -11 0 5 16 13 13 20 25 17 29 -4 3 -13 -4 -22 -16 -8 -12 -20
-19 -26 -16 -6 4 -5 10 3 16 10 6 6 7 -11 2 -22 -6 -23 -5 -11 10 16 19 8 21
-21 5 -17 -9 -18 -13 -7 -20 10 -6 10 -9 2 -9 -7 0 -17 10 -24 21 -6 12 -7 19
-1 15 5 -3 23 1 38 9 16 8 25 15 19 15 -5 0 -3 5 5 10 12 8 13 10 1 10 -8 0
-23 -8 -34 -17 -14 -13 -21 -14 -24 -6 -2 7 -12 9 -21 6 -14 -4 -15 -3 -2 5 9
7 19 7 25 2 8 -7 12 -5 12 5 0 7 -3 14 -6 13 -29 -3 -50 6 -59 25 -7 14 -11
17 -11 7 -1 -9 5 -22 12 -29 10 -11 9 -14 -1 -18 -6 -3 -10 -9 -7 -13 3 -5 1
-11 -4 -15 -6 -3 -8 6 -5 21 3 19 1 24 -8 18 -19 -12 -37 -13 -43 -4 -3 5 3 7
14 5 11 -2 22 3 25 11 7 17 -12 59 -22 50 -3 -4 0 -12 6 -18 15 -15 16 -28 2
-28 -5 0 -10 7 -10 16 0 8 -4 13 -9 10 -14 -9 -27 16 -27 49 1 17 -3 33 -9 37
-6 4 -2 8 9 8 11 0 16 -5 13 -13 -3 -8 -2 -20 3 -26 5 -9 8 -3 8 14 0 14 -6
29 -13 32 -25 9 -26 36 -4 59 36 39 66 29 146 -49z m7538 -71 c5 -23 8 -27 16
-15 6 10 9 11 9 1 0 -22 20 -2 21 21 1 20 2 20 8 -3 6 -20 3 -27 -16 -34 -12
-6 -24 -17 -24 -25 -1 -13 -2 -13 -6 1 -2 10 -10 15 -19 11 -9 -3 -11 -10 -5
-20 14 -26 2 -49 -32 -59 -57 -17 -39 -29 70 -48 155 -25 231 -46 238 -63 3
-9 -11 -37 -34 -68 -59 -78 -169 -205 -194 -225 -39 -30 -91 -42 -156 -34 -35
4 -61 3 -61 -3 0 -5 -9 -9 -20 -10 -11 -1 -20 2 -20 6 0 4 -11 13 -24 19 -45
20 -125 102 -121 124 3 11 0 29 -5 38 -7 12 -6 20 1 22 6 2 2 13 -9 26 -10 12
-21 19 -24 16 -8 -8 -4 109 5 123 4 6 1 14 -5 16 -8 3 -5 6 6 6 12 1 16 6 12
16 -3 8 -1 15 5 15 6 0 8 4 4 9 -3 5 4 13 16 16 14 5 25 2 30 -6 6 -9 9 1 9
28 0 23 -5 45 -10 48 -7 4 -9 -5 -5 -24 3 -17 1 -31 -3 -31 -5 0 -9 6 -10 13
0 6 -3 22 -6 35 -2 12 -2 22 2 23 77 9 81 8 85 -14 4 -19 4 -19 6 4 1 28 17
39 56 39 14 0 25 -7 28 -17 4 -14 5 -12 6 5 0 12 5 22 10 22 5 0 17 3 26 6 13
5 16 2 13 -13 -3 -23 18 -53 38 -53 7 0 18 -8 23 -17 10 -17 10 -17 11 0 0 10
-6 20 -12 22 -15 6 -22 75 -8 75 6 0 9 -3 9 -7 -6 -36 3 -63 20 -63 22 0 31
18 32 63 1 34 3 31 14 -17z m-11980 -29 c72 -77 70 -72 45 -109 -28 -41 -161
-167 -176 -168 -6 0 -17 -7 -24 -15 -9 -11 -16 -12 -30 -3 -10 7 -17 15 -14
19 2 5 -4 13 -15 18 -11 6 -23 20 -26 32 -4 11 -9 18 -12 15 -3 -3 -14 4 -25
16 -17 20 -17 22 -1 41 33 36 227 185 243 186 3 1 19 -14 35 -32z m10780 -73
c-22 -33 -17 -131 9 -186 39 -81 150 -160 206 -145 11 3 20 1 20 -4 0 -12 93
-2 152 17 25 8 58 27 72 41 15 14 29 23 32 20 11 -11 -16 -72 -48 -106 -94
-101 -266 -94 -388 16 -59 53 -93 115 -110 199 -14 68 -1 141 28 151 9 4 21
13 25 20 5 8 11 12 14 9 3 -3 -2 -17 -12 -32z m2740 -361 c-3 -15 -8 -165 -10
-333 -4 -287 -12 -547 -20 -615 -2 -16 -9 -31 -15 -33 -6 -2 -20 -22 -31 -43
-11 -22 -24 -37 -30 -33 -6 3 -17 -2 -25 -12 -13 -18 -15 -18 -33 4 -12 13
-25 20 -35 16 -10 -4 -16 -1 -16 7 -1 8 -7 1 -14 -16 l-13 -30 -6 25 c-8 34
-23 431 -26 698 -1 46 -5 71 -11 67 -20 -12 -9 5 23 37 17 18 41 45 53 60 29
37 206 228 212 228 2 0 1 -12 -3 -27z m-14355 -71 c0 -4 10 -18 23 -32 12 -14
36 -47 53 -75 17 -27 37 -60 44 -72 13 -20 12 -24 -15 -45 -47 -37 -259 -168
-273 -168 -10 0 -135 180 -149 215 -5 14 113 93 222 148 69 36 95 44 95 29z
m8428 -130 c8 -5 10 -16 6 -28 -7 -19 -63 -106 -84 -131 -6 -7 -8 -13 -5 -13
7 0 -48 -102 -78 -144 -11 -16 -15 -26 -7 -21 10 6 11 4 4 -6 -4 -8 -9 -19
-10 -25 -1 -6 -16 -42 -33 -81 -17 -39 -31 -76 -31 -82 0 -5 -7 -14 -16 -19
-10 -5 -17 -26 -19 -53 -3 -42 -112 -329 -149 -394 -9 -16 -15 -22 -12 -12 4
11 9 31 12 45 4 15 10 32 14 37 4 6 11 25 15 42 5 28 4 32 -10 27 -9 -4 -14
-9 -11 -11 2 -3 -9 -26 -25 -51 -16 -25 -29 -54 -29 -63 0 -19 -20 -70 -30
-79 -10 -8 -76 -151 -96 -205 -9 -27 -21 -54 -25 -60 -12 -17 -37 -116 -54
-215 -16 -90 -98 -315 -184 -505 -17 -37 -31 -75 -31 -84 0 -9 -7 -29 -16 -46
-9 -16 -40 -86 -69 -155 -29 -69 -97 -224 -150 -344 -96 -217 -96 -218 -78
-244 21 -33 23 -52 4 -74 -13 -17 -15 -17 -28 0 -8 9 -12 11 -8 4 9 -17 -1
-15 -25 5 -11 10 -22 16 -23 14 -1 -2 -25 10 -53 26 -90 54 -145 83 -153 83
-5 0 -8 -11 -7 -24 3 -27 -16 -40 -44 -31 -22 7 -30 26 -23 53 4 18 9 19 32
11 23 -9 24 -8 11 5 -8 8 -21 16 -29 18 -17 4 -45 24 -82 59 -16 15 -31 24
-35 20 -4 -3 -4 0 0 7 5 8 22 12 42 10 18 -1 38 2 43 7 5 6 30 60 54 120 66
161 194 455 264 605 37 80 98 215 131 293 12 26 26 47 31 47 6 0 11 13 11 29
0 37 13 69 40 101 12 14 18 19 14 11 -20 -39 17 6 51 61 22 35 49 74 62 88 13
14 23 28 23 32 0 5 9 17 21 29 11 11 42 66 69 122 27 56 49 95 50 87 1 -34 20
15 20 53 0 43 24 87 49 87 19 1 39 27 71 100 14 30 28 57 33 58 4 2 7 8 7 14
0 21 64 140 82 152 10 7 15 16 11 19 -3 4 1 7 11 7 9 0 15 4 12 9 -3 5 1 11 9
15 26 10 16 30 -23 49 -54 25 -102 33 -102 16 0 -11 -2 -11 -10 1 -7 11 -4 17
10 22 12 5 20 17 20 32 0 29 40 59 61 45 32 -21 129 -42 129 -28 0 4 -8 13
-17 18 -10 6 -14 11 -10 11 4 0 3 9 -3 19 -7 14 -7 22 1 26 11 8 -34 35 -57
35 -8 0 -14 6 -15 13 -2 26 3 62 11 72 5 6 12 28 16 49 8 44 49 95 101 127 34
21 257 85 303 88 14 0 31 -3 38 -7z m-5828 -302 c18 -17 30 -37 28 -47 -3 -16
-151 -123 -170 -123 -5 0 -17 9 -29 21 l-20 20 35 39 c19 22 47 57 62 80 32
48 51 50 94 10z m8731 -6 c58 -29 158 -47 213 -39 24 4 46 3 49 -2 3 -5 0 -34
-8 -64 -8 -30 -17 -70 -20 -89 -3 -19 -8 -48 -11 -63 -3 -16 -8 -38 -9 -50
-11 -63 -68 -279 -87 -327 -40 -99 -40 -99 -116 -95 -72 4 -91 7 -107 16 -5 4
-22 9 -37 13 -16 3 -28 11 -28 16 0 6 -7 10 -15 10 -32 0 -37 40 -21 145 3 17
8 52 12 80 3 27 10 60 15 73 5 13 9 38 9 55 0 18 7 54 15 81 8 27 15 64 15 83
0 18 5 33 10 33 6 0 9 3 8 8 -1 4 4 40 11 80 15 82 12 81 102 36z m-12018 -61
c9 -38 23 -98 31 -136 l14 -67 -81 -53 c-138 -91 -156 -100 -162 -85 -2 7 -15
66 -29 131 l-24 118 52 38 c28 21 65 46 81 56 17 11 43 29 58 42 16 13 32 23
37 23 4 0 15 -30 23 -67z m3503 -68 c3 -8 14 -17 25 -20 20 -7 28 -59 10 -69
-12 -8 -211 -46 -240 -46 -16 0 -21 4 -17 15 3 8 1 15 -4 15 -19 0 -9 15 23
36 117 76 133 84 164 84 20 0 36 -6 39 -15z m229 -148 c70 -42 89 -54 113 -75
15 -12 43 -29 62 -39 19 -9 40 -23 47 -32 7 -9 13 -11 13 -6 0 6 3 5 8 -1 7
-12 146 -104 156 -104 3 0 30 -16 60 -35 30 -19 57 -35 60 -35 3 0 14 -7 23
-15 24 -20 124 -89 263 -181 63 -42 127 -84 142 -95 15 -10 32 -19 38 -19 5 0
10 -4 10 -8 0 -8 -92 -21 -395 -58 l-141 -17 -72 47 c-40 25 -75 46 -79 46 -4
0 -36 20 -72 44 -37 24 -84 54 -106 67 -22 14 -55 33 -73 44 -19 11 -63 39
-98 63 -36 23 -69 42 -74 42 -6 0 -10 4 -10 8 0 5 -12 15 -27 23 -33 17 -232
140 -286 176 -29 21 -36 30 -31 47 3 12 9 24 13 28 3 4 76 23 161 43 85 19
164 39 175 44 29 14 97 13 120 -2z m1176 -764 c348 -229 449 -296 515 -343 39
-27 76 -50 81 -50 5 0 18 -8 29 -17 29 -26 73 -56 121 -83 40 -22 42 -25 26
-42 -10 -12 -30 -18 -57 -18 -34 0 -47 -6 -69 -31 -27 -32 -30 -39 -28 -74 1
-13 -13 -30 -36 -46 l-38 -26 -40 25 c-22 14 -64 39 -95 55 -30 16 -69 40 -87
53 -17 13 -34 24 -38 24 -3 0 -72 41 -153 91 -81 51 -160 100 -177 109 -16 10
-65 40 -109 66 -43 27 -90 56 -105 65 -14 9 -106 66 -203 128 -98 61 -183 111
-190 111 -75 2 215 53 472 83 19 2 38 5 41 5 4 1 67 -37 140 -85z m7325 -185
c-1 -7 -8 -24 -15 -38 -11 -23 -11 -24 3 -6 9 11 16 14 16 7 0 -7 4 -9 10 -6
6 3 7 -1 4 -9 -3 -9 -10 -14 -14 -11 -15 9 -22 -35 -8 -53 12 -15 11 -16 -4
-3 -16 12 -18 10 -18 -23 0 -34 -1 -36 -21 -25 -20 10 -21 9 -16 -10 3 -11 2
-20 -2 -19 -16 2 -22 -3 -14 -14 4 -7 8 -29 9 -47 0 -19 6 -37 13 -39 6 -2 9
-8 5 -13 -3 -5 -14 -4 -27 3 -19 9 -20 9 -11 -3 23 -29 23 -45 0 -45 -15 1
-20 -4 -18 -16 2 -13 -2 -16 -15 -11 -28 10 -33 26 -18 49 11 18 11 21 -1 21
-8 0 -15 -7 -16 -16 0 -9 -2 -20 -3 -26 -2 -5 -4 -14 -5 -20 -1 -5 -5 -1 -10
10 -8 18 -9 18 -9 2 -1 -10 -5 -16 -9 -13 -4 2 -14 0 -22 -6 -12 -8 -12 -9 3
-4 9 3 17 1 17 -5 0 -6 5 -7 11 -3 8 4 9 -1 3 -17 -4 -13 -8 -33 -8 -44 -1
-11 -5 -26 -10 -34 -7 -11 -10 -11 -17 0 -6 9 -7 2 -3 -17 4 -19 1 -34 -5 -38
-6 -4 -11 -3 -11 2 0 6 -6 12 -13 15 -8 3 -13 -5 -13 -24 -2 -45 -43 -83 -45
-41 0 10 -3 12 -6 4 -2 -6 -10 -9 -15 -6 -7 5 -8 2 -3 -6 4 -7 2 -16 -6 -21
-10 -6 -11 -9 -1 -9 6 0 12 -10 11 -22 0 -17 -2 -19 -7 -8 -9 20 -31 24 -48 9
-12 -9 -13 -9 -9 4 4 8 1 18 -6 23 -8 5 -11 2 -6 -8 3 -9 0 -21 -6 -28 -8 -9
-9 -11 -1 -7 18 10 25 -34 8 -57 -18 -26 -18 -36 1 -36 8 0 15 -2 15 -4 0 -2
3 -11 6 -20 3 -9 1 -16 -6 -16 -6 0 -8 5 -5 10 3 6 1 10 -4 10 -6 0 -11 -7
-11 -15 0 -8 -7 -15 -15 -15 -9 0 -20 -10 -25 -22 -5 -14 -9 -17 -9 -8 -1 26
-22 41 -38 29 -9 -8 -13 -8 -13 0 0 21 -19 11 -22 -11 -2 -14 -10 -22 -18 -20
-10 1 -9 -3 4 -13 24 -18 40 -20 30 -2 -5 8 -4 9 3 2 16 -15 26 -55 14 -55 -6
0 -10 5 -8 11 1 6 -4 14 -10 16 -14 5 -17 -15 -7 -40 5 -13 9 -13 32 -1 34 18
43 18 36 0 -3 -8 -13 -12 -25 -9 -10 3 -19 0 -19 -6 0 -7 -10 -10 -25 -7 -23
4 -25 2 -20 -17 5 -18 4 -19 -4 -5 -7 10 -19 14 -32 11 -19 -5 -20 -4 -9 17 9
16 14 19 20 10 11 -17 30 -3 30 21 0 16 -3 18 -19 9 -29 -15 -39 -12 -17 5 11
8 16 15 10 15 -15 0 -30 -14 -39 -35 -8 -19 -10 -26 -14 -50 -1 -5 -6 -3 -11
5 -8 12 -10 8 -8 -14 2 -18 -2 -31 -11 -34 -10 -3 -12 0 -7 13 5 15 4 16 -9 5
-13 -11 -13 -15 -3 -21 10 -7 10 -9 -1 -9 -8 0 -11 -3 -8 -7 4 -3 -1 -12 -11
-20 -15 -12 -14 -13 11 -7 27 6 28 6 15 -15 -7 -11 -16 -21 -21 -21 -4 0 -5 4
-2 10 3 6 -1 7 -9 4 -9 -3 -16 -1 -16 5 0 8 -4 8 -14 -1 -8 -7 -12 -17 -9 -22
3 -4 9 -3 12 3 5 8 13 6 27 -5 10 -8 13 -12 5 -8 -11 5 -13 3 -8 -10 8 -21
-19 -34 -36 -17 -9 9 -8 11 6 6 29 -12 19 9 -16 30 -17 11 -36 21 -42 23 -5 2
-2 -2 8 -8 20 -13 23 -29 5 -26 -21 5 -64 25 -54 25 6 1 1 8 -10 17 -10 8 -13
13 -7 9 9 -4 11 -1 7 9 -3 9 -10 13 -15 10 -10 -6 -16 7 -21 41 -2 11 -9 25
-17 31 -11 9 -8 13 17 22 24 8 30 15 25 28 -5 13 -3 15 8 9 11 -6 11 -5 2 5
-6 7 -9 19 -6 28 4 9 2 13 -4 9 -7 -4 -10 0 -9 10 3 17 46 27 46 11 0 -5 5 -6
11 -2 6 3 9 19 7 35 -3 17 0 29 6 28 27 -3 36 2 36 22 0 17 5 20 25 16 21 -3
29 1 41 24 19 38 54 70 68 62 6 -3 8 -3 4 2 -4 4 -3 16 2 26 6 10 11 29 12 43
2 26 13 35 20 15 6 -18 37 1 50 32 13 29 40 45 68 41 12 -2 12 -1 2 6 -8 5
-12 20 -10 33 3 21 8 24 41 22 33 -1 36 1 26 13 -10 12 -6 22 25 52 21 20 42
47 47 60 5 13 13 20 19 17 5 -3 10 -2 10 4 0 6 7 8 15 5 19 -8 38 41 30 76 -4
20 -3 22 6 10 9 -12 10 -11 6 6 -4 17 -1 20 14 17 11 -3 19 -13 19 -22 0 -12
2 -13 8 -3 9 14 70 13 79 -2 3 -5 2 -7 -3 -4 -5 3 -14 0 -21 -7 -10 -11 -10
-15 0 -19 9 -3 8 -7 -3 -15 -13 -10 -13 -11 0 -11 10 -1 4 -10 -15 -25 -25
-21 -28 -26 -15 -37 8 -7 12 -9 8 -4 -9 11 14 36 26 28 5 -3 6 1 1 8 -6 10 -4
12 8 7 20 -7 39 15 42 50 1 16 7 41 13 56 16 37 15 47 -2 47 -8 0 -19 -12 -24
-27 -6 -16 -11 -22 -11 -15 -1 10 -6 10 -21 2 -16 -9 -22 -8 -26 5 -7 17 23
58 36 50 4 -3 7 3 6 13 0 10 6 17 16 17 10 0 23 6 30 13 9 9 9 12 -1 12 -11 0
-11 3 -2 14 10 11 8 17 -6 25 -23 14 -8 14 18 1 14 -8 19 -7 19 1 0 6 7 8 16
5 8 -3 13 -2 9 3 -3 5 1 12 7 14 7 3 14 6 15 6 1 1 0 -5 -1 -11z m-10416 -109
c25 -39 60 -93 78 -120 17 -26 32 -51 32 -54 0 -3 11 -23 25 -43 14 -20 25
-42 25 -49 0 -7 11 -23 25 -37 14 -14 25 -33 25 -42 0 -9 13 -31 28 -49 37
-41 222 -337 222 -354 0 -15 -92 -265 -122 -333 -12 -27 -25 -48 -29 -48 -4 0
-14 15 -23 33 -9 17 -44 70 -77 117 -33 47 -63 92 -67 100 -11 24 -66 105 -74
108 -5 2 -8 8 -8 14 0 5 -7 16 -15 24 -10 11 -12 21 -5 39 5 14 7 25 4 25 -2
0 3 14 11 31 9 17 15 42 13 57 -3 26 -4 26 -27 -15 -13 -23 -30 -44 -37 -47
-11 -4 -61 65 -186 259 -25 39 -73 112 -107 164 -33 52 -61 98 -61 101 0 26
248 182 300 189 3 1 25 -31 50 -70z m4250 -470 c80 -52 152 -99 161 -104 9 -6
54 -35 100 -66 46 -30 98 -63 116 -74 21 -12 33 -29 37 -49 5 -27 46 -334 46
-345 0 -3 -12 7 -27 21 -16 14 -33 27 -38 29 -17 6 -531 319 -685 416 -36 23
-114 72 -175 109 -60 37 -112 69 -114 71 -10 7 34 43 53 43 12 0 39 11 61 25
22 14 55 32 74 40 25 12 32 21 28 35 -3 13 3 26 21 39 l26 19 86 -57 c47 -32
150 -100 230 -152z m-5686 -206 c21 -109 45 -234 53 -278 8 -44 17 -93 21
-110 3 -16 6 -45 6 -62 0 -18 4 -33 10 -33 6 0 4 -5 -4 -10 -11 -7 -11 -10 -2
-10 7 0 10 -5 7 -10 -4 -6 -1 -18 7 -27 9 -12 9 -15 1 -9 -9 5 -13 1 -13 -13
0 -11 -4 -22 -9 -26 -6 -3 -4 -17 5 -33 13 -25 12 -27 -6 -30 -16 -3 -18 -7
-10 -22 7 -13 6 -20 -3 -23 -9 -4 -8 -8 3 -16 17 -12 1 -15 -18 -3 -8 5 -10
16 -5 28 6 16 4 17 -9 7 -17 -14 -29 -8 -22 12 3 7 0 16 -7 21 -8 5 -10 3 -4
-7 5 -9 5 -11 -2 -4 -5 6 -18 40 -27 77 -10 37 -24 75 -32 85 -7 10 -14 28
-14 40 0 12 -4 24 -9 27 -5 3 -7 14 -4 24 2 10 -5 28 -16 41 -11 12 -17 29
-14 37 3 8 0 14 -6 14 -6 0 -11 13 -11 29 0 16 -6 36 -13 43 -14 13 -24 47
-31 103 -3 17 -9 42 -15 57 -6 15 -13 49 -17 75 -3 26 -10 59 -15 72 -5 13 -8
25 -7 26 13 12 175 105 184 105 5 0 27 -89 48 -197z m6261 -170 c11 -7 61 -38
110 -68 50 -31 99 -61 110 -68 11 -7 22 -14 25 -17 25 -26 185 -119 315 -184
50 -25 106 -60 125 -78 20 -18 49 -42 65 -54 17 -11 54 -37 82 -57 29 -20 57
-37 63 -37 5 0 10 -7 10 -15 0 -9 8 -19 18 -22 18 -8 23 -11 64 -45 29 -24 49
-78 29 -78 -6 0 -11 -4 -11 -10 0 -14 -81 -120 -94 -121 -20 -2 -50 0 -81 7
-29 6 -29 5 10 -22 64 -45 85 -74 85 -120 0 -23 3 -57 6 -75 5 -33 5 -33 -11
-14 -16 20 -17 20 -42 -10 -14 -16 -36 -42 -49 -57 -13 -15 -24 -30 -24 -33 0
-14 -67 -95 -82 -100 -9 -3 -15 -12 -12 -19 8 -20 -28 -30 -38 -11 -5 8 -13
13 -17 11 -4 -3 -12 4 -19 15 -10 15 -10 19 0 17 8 -2 13 7 12 25 -1 20 4 27
17 27 11 0 19 7 19 16 0 13 -3 14 -14 5 -11 -9 -15 -7 -19 9 -3 11 0 23 5 27
7 4 8 1 3 -7 -5 -8 -4 -11 3 -7 13 9 22 78 25 200 2 73 7 101 17 108 13 8 12
12 -4 24 -18 13 -17 14 9 21 14 3 39 1 53 -5 26 -11 26 -11 -3 11 -16 13 -32
23 -35 24 -17 3 -47 20 -60 35 -14 17 -146 99 -158 99 -3 0 -15 9 -26 19 -12
10 -37 27 -56 38 -19 10 -56 33 -82 51 -26 17 -49 32 -51 32 -5 0 -100 61
-122 78 -8 6 -48 31 -174 107 -62 38 -63 41 -81 147 -10 57 -21 138 -25 181
l-8 79 49 -34 c27 -18 58 -39 69 -45z m-4164 -208 c48 -77 108 -171 132 -210
24 -38 86 -137 137 -220 51 -82 134 -215 185 -295 223 -351 257 -410 245 -425
-14 -17 -196 -155 -204 -155 -3 0 -6 11 -6 25 0 17 -7 26 -23 30 -13 4 -31 22
-42 41 -10 19 -22 34 -27 34 -4 0 -8 5 -8 11 0 9 -42 72 -60 89 -3 3 -9 12
-15 21 -49 76 -171 247 -186 259 -4 3 -9 14 -13 26 -3 11 -14 29 -24 40 -22
25 -122 171 -122 178 0 3 -8 15 -17 25 -33 36 -43 50 -55 76 -6 14 -14 25 -18
25 -4 0 -11 8 -14 18 -9 24 -32 63 -43 71 -4 3 -15 18 -23 33 -8 15 -37 59
-64 98 -48 71 -49 72 -36 113 24 83 113 332 122 344 11 14 29 -11 179 -252z
m8615 3 c-1 -17 4 -23 20 -22 15 0 20 -4 17 -13 -3 -8 -12 -12 -19 -9 -16 6
-29 -10 -14 -19 5 -3 22 2 37 12 15 9 25 13 21 9 -9 -10 52 -67 64 -60 5 3 6
10 2 15 -3 5 -9 7 -14 4 -5 -3 -11 -1 -14 4 -3 5 7 11 24 13 16 2 27 1 24 -4
-3 -4 5 -8 16 -8 13 0 24 8 27 20 3 11 9 20 14 20 13 0 11 -14 -3 -28 -9 -9
-8 -12 5 -12 11 0 14 -5 10 -17 -3 -10 -3 -15 2 -11 4 4 20 1 36 -8 27 -13 29
-13 30 3 1 16 2 16 6 1 3 -10 11 -15 21 -12 16 5 16 5 1 -5 -23 -15 -19 -83 4
-87 10 -1 17 2 17 8 0 6 -8 7 -17 4 -17 -6 -17 -5 0 8 10 7 15 20 11 29 -3 8
-2 17 3 20 5 3 10 -2 10 -11 1 -9 4 -35 6 -57 6 -60 7 -61 17 -45 8 13 10 13
10 -2 0 -9 -4 -19 -8 -22 -10 -6 -34 9 -32 20 1 5 -4 10 -12 13 -7 2 -10 0 -6
-4 4 -5 2 -15 -5 -23 -9 -13 -9 -14 1 -8 18 11 35 -3 23 -18 -6 -7 -8 -23 -6
-36 2 -13 -1 -31 -7 -39 -10 -13 -10 -14 1 -4 7 6 20 9 27 6 14 -5 20 12 7 20
-5 2 -2 2 5 1 6 -2 12 4 12 12 0 10 -6 14 -15 10 -10 -4 -15 1 -15 15 0 19 1
19 25 3 24 -16 27 -16 48 2 12 11 25 23 28 27 3 4 12 1 19 -8 11 -13 10 -14
-6 -8 -17 6 -18 5 -4 -13 11 -15 11 -16 0 -6 -22 19 -35 14 -17 -6 9 -10 19
-34 23 -53 4 -26 3 -30 -5 -19 -6 8 -11 10 -11 4 0 -18 13 -24 27 -13 9 9 13
8 14 0 3 -26 4 -30 12 -37 4 -4 7 0 7 9 0 10 5 14 15 11 8 -4 15 -2 15 4 0 15
-26 33 -35 24 -5 -4 -5 -2 -2 5 4 6 1 14 -5 16 -9 4 -9 6 -1 6 6 1 18 -6 27
-14 11 -11 16 -12 19 -2 2 6 3 5 2 -4 -1 -8 4 -24 11 -34 13 -17 14 -17 14 -1
0 9 5 14 10 11 6 -3 10 -1 10 4 0 6 7 11 15 11 8 0 19 9 25 20 13 24 26 26 34
4 6 -15 4 -15 -11 -3 -15 12 -16 12 -10 -3 3 -10 2 -18 -3 -18 -6 0 -10 -5
-10 -11 0 -6 6 -9 14 -6 11 4 13 -1 10 -23 -3 -15 0 -31 5 -35 7 -4 8 1 4 11
-4 12 -3 15 5 10 7 -4 12 -1 12 7 0 8 7 17 15 21 8 3 15 3 15 0 0 -3 -7 -12
-15 -20 -8 -9 -15 -27 -15 -40 0 -14 -4 -23 -9 -20 -5 3 -11 -1 -15 -9 -3 -8
3 -19 12 -25 15 -9 14 -10 -4 -5 -14 3 -24 0 -27 -9 -4 -10 1 -12 16 -9 20 4
20 3 4 -7 -9 -6 -15 -15 -12 -21 4 -5 1 -9 -4 -9 -6 0 -11 -8 -11 -19 0 -10
-7 -24 -15 -31 -8 -7 -15 -17 -15 -22 0 -5 -16 -26 -35 -46 -19 -20 -35 -41
-35 -46 0 -5 -8 -16 -19 -25 -10 -9 -41 -45 -70 -81 -28 -36 -62 -77 -74 -91
-12 -15 -33 -42 -47 -59 -21 -28 -95 -114 -134 -156 -124 -135 -773 -794 -782
-794 -3 0 -4 7 -1 15 4 8 2 17 -4 20 -5 4 -8 3 -7 -2 1 -4 -4 -19 -11 -32 -10
-17 -15 -20 -21 -11 -11 17 -68 -8 -76 -33 -3 -9 -10 -15 -15 -11 -5 3 -7 9
-4 14 3 5 1 11 -4 15 -6 3 -8 12 -5 19 3 8 -1 17 -8 22 -7 4 -10 4 -6 -1 4 -4
-4 -14 -19 -22 -20 -10 -29 -11 -37 -2 -8 9 -6 10 9 5 20 -6 20 -6 1 9 -11 8
-25 15 -30 15 -6 0 -3 7 7 14 15 12 16 14 2 20 -15 5 -22 27 -7 25 37 -6 8 26
-31 33 -21 4 -30 0 -38 -14 -6 -11 -13 -17 -16 -14 -3 3 -1 11 5 19 15 17 11
56 -4 50 -7 -2 -15 0 -19 6 -3 6 -1 11 6 11 10 0 10 3 1 12 -9 9 -16 5 -33
-15 -19 -25 -48 -29 -33 -5 5 8 1 9 -12 4 -18 -7 -18 -6 1 12 11 11 24 17 29
14 4 -2 2 -8 -5 -13 -11 -7 -10 -9 4 -9 19 0 20 1 11 24 -3 9 -13 16 -21 16
-8 0 -12 4 -9 8 8 13 -69 8 -86 -5 -8 -7 -19 -9 -23 -5 -5 4 -5 -1 -2 -10 5
-15 3 -16 -18 -6 -13 6 -22 15 -19 20 6 10 12 78 6 78 -14 0 -52 -36 -48 -45
3 -8 -2 -12 -12 -10 -9 1 -20 -5 -23 -13 -4 -13 -7 -12 -11 5 -3 11 -2 27 3
34 8 12 11 11 19 -1 7 -11 10 -11 10 -2 0 7 -7 15 -15 18 -8 4 -15 12 -15 20
0 17 -16 18 -26 2 -4 -6 -3 -8 3 -5 6 4 13 0 16 -7 4 -10 -1 -14 -14 -13 -10
1 -22 9 -25 19 -3 10 -10 15 -16 12 -7 -5 -9 -1 -5 9 3 10 2 17 -3 17 -6 0
-10 -4 -10 -10 0 -5 -8 -14 -18 -19 -15 -8 -18 -6 -18 14 0 16 4 21 16 17 13
-5 13 -3 1 11 -12 15 -12 17 3 11 12 -5 15 -2 9 12 -4 10 -2 15 4 11 13 -8 13
26 -1 35 -7 5 -4 8 7 8 10 0 20 7 23 15 7 16 -21 49 -34 41 -24 -14 -4 33 27
67 20 21 40 46 45 55 8 14 109 133 163 192 20 22 46 54 132 160 42 52 91 110
109 130 29 31 103 124 208 260 39 51 79 94 323 343 95 97 177 177 183 177 5 0
6 5 3 10 -3 6 4 14 17 19 13 5 33 18 45 30 18 17 22 18 27 5 10 -26 31 -10 32
24 2 37 3 42 8 42 2 0 3 -10 2 -22z m2673 -497 c10 -6 16 -20 16 -37 -2 -24
-6 -27 -36 -29 -19 -1 -331 -5 -694 -9 -363 -4 -726 -10 -807 -13 -82 -3 -148
-1 -148 4 0 9 78 13 287 16 77 1 129 5 126 11 -4 5 -2 6 4 3 12 -8 75 -9 132
-3 25 3 115 8 200 11 86 4 183 9 216 11 33 2 101 6 150 9 50 3 126 8 170 10
44 3 108 7 143 9 35 2 62 0 62 -6 0 -5 5 -6 12 -2 7 4 39 9 72 11 33 2 62 6
65 8 6 7 10 6 30 -4z m-4165 -351 c24 -7 36 -18 36 -29 0 -22 -57 -31 -195
-31 -119 0 -405 -19 -430 -29 -32 -12 -52 -2 -69 34 -9 18 -16 35 -16 37 0 5
65 26 95 30 58 9 548 -1 579 -12z m566 -80 c0 -12 -40 -77 -66 -106 -11 -12
-33 -37 -51 -57 -55 -63 -81 -70 -238 -72 -77 0 -143 1 -147 3 -12 5 -398 7
-398 2 0 -3 -16 -6 -35 -7 -26 -2 -35 1 -35 12 0 8 5 15 10 15 6 0 2 8 -7 18
-16 16 -19 16 -31 2 -12 -13 -13 -13 -9 1 4 13 1 15 -14 12 -10 -3 -19 0 -19
6 0 6 5 11 11 11 5 0 7 5 3 11 -3 6 1 10 12 9 40 -5 47 -1 34 15 -18 22 -10
26 66 30 38 1 70 8 72 14 2 6 8 11 13 11 6 0 8 -4 5 -9 -3 -4 6 -7 19 -5 14 1
25 -1 25 -6 0 -4 9 -6 20 -3 11 3 18 8 16 12 -2 3 15 5 37 4 23 0 49 3 57 7 8
5 23 4 33 -2 15 -8 18 -7 12 2 -5 8 -3 11 6 8 8 -3 21 -2 30 3 9 5 32 11 50
13 19 3 52 8 74 12 22 4 59 7 83 8 23 0 42 4 42 8 0 3 8 5 18 3 9 -1 23 2 30
8 8 6 12 6 12 -1 0 -7 11 -8 28 -4 15 4 71 7 124 7 53 0 94 3 92 7 -3 5 0 8 5
8 6 0 11 -5 11 -10z m-3166 -982 c10 -10 22 -18 27 -18 5 0 9 -5 9 -11 0 -5
-4 -7 -10 -4 -5 3 -10 2 -10 -4 0 -5 5 -13 10 -16 12 -8 6 -75 -9 -104 -6 -11
-11 -29 -11 -40 0 -12 -4 -29 -9 -39 -5 -9 -22 -43 -38 -74 -28 -59 -37 -67
-48 -47 -4 5 -17 14 -29 19 -20 7 -24 20 -36 107 -20 153 -24 216 -12 209 5
-3 15 1 22 10 7 8 19 13 27 10 8 -3 12 -2 8 3 -14 24 85 23 109 -1z m-194
-236 c19 -110 14 -148 -14 -94 -9 17 -21 34 -27 38 -8 5 -9 3 -4 -6 4 -7 2
-16 -6 -20 -22 -14 -18 -39 12 -64 16 -14 29 -31 29 -38 0 -8 6 -23 14 -34 16
-23 11 -104 -7 -104 -40 0 -124 40 -170 81 -90 80 -98 129 -20 129 21 0 36 6
39 15 4 8 10 12 15 9 5 -3 9 4 9 16 0 11 4 28 9 38 10 19 59 115 75 149 16 32
24 11 46 -115z"/>
<path d="M15989 1643 c-1 -10 0 -30 1 -45 2 -33 -17 -105 -31 -114 -16 -10
-59 5 -59 21 0 27 -21 15 -36 -20 -8 -19 -15 -38 -15 -42 0 -5 -6 -14 -11 -21
-6 -7 -21 -35 -34 -62 -23 -49 -38 -62 -47 -37 -2 6 -7 -15 -11 -48 -10 -94
-28 -145 -114 -325 -22 -47 -50 -112 -62 -145 -13 -33 -26 -64 -31 -70 -5 -5
-9 -15 -9 -22 0 -23 -43 -107 -67 -131 -13 -13 -32 -22 -42 -20 -11 2 -28 -9
-43 -27 -20 -24 -24 -38 -20 -70 2 -22 9 -43 15 -47 7 -4 1 -27 -16 -66 -15
-33 -27 -64 -27 -70 0 -6 -5 -14 -10 -17 -7 -4 -9 2 -4 19 9 36 -2 33 -22 -6
-21 -40 -36 -53 -91 -78 -74 -33 -173 -142 -173 -190 0 -7 156 -10 485 -10
l485 0 0 830 c0 457 -2 830 -5 830 -3 0 -5 -8 -6 -17z"/>
<path d="M14694 1445 c-3 -14 -10 -25 -15 -25 -15 0 -10 -37 7 -51 25 -20 41
-60 48 -119 10 -78 14 -83 62 -67 44 16 46 25 18 127 -9 30 -19 71 -24 90 -14
62 -20 70 -56 70 -28 0 -35 -5 -40 -25z"/>
<path d="M15015 927 c9 -40 13 -47 29 -47 7 0 24 -13 39 -28 29 -30 36 -79 15
-100 -16 -16 4 -38 41 -45 16 -4 39 -16 51 -29 l21 -22 23 29 c43 53 42 135
-1 135 -8 0 -11 5 -7 12 5 8 2 9 -12 4 -10 -5 -27 -10 -36 -13 -23 -7 -92 44
-120 89 -32 51 -52 58 -43 15z"/>
<path d="M14934 742 c4 -7 3 -12 -3 -12 -5 0 -23 -12 -40 -26 -17 -14 -31 -23
-31 -19 0 3 -6 1 -12 -5 -7 -5 -29 -24 -48 -40 -19 -16 -43 -32 -52 -36 -10
-3 -18 -9 -18 -14 0 -5 -14 -17 -32 -26 -17 -9 -40 -25 -51 -35 -12 -10 -24
-19 -29 -19 -4 0 -25 -12 -46 -27 -92 -65 -181 -130 -242 -178 -36 -28 -83
-62 -105 -77 -22 -15 -103 -72 -179 -128 l-139 -100 500 0 499 0 42 88 c22 48
75 158 117 244 41 87 75 164 75 172 0 8 9 30 20 48 23 40 23 78 0 70 -8 -3
-12 -2 -8 2 7 8 -40 52 -79 74 -13 6 -35 12 -49 12 -15 0 -43 10 -62 22 -20
12 -32 16 -28 10z"/>
</g>
</svg>
